<?xml version="1.0" encoding="UTF-8"?>
<svg id="Layer_1" data-name="Layer 1" xmlns="http://www.w3.org/2000/svg" version="1.1" viewBox="0 0 400 250">
  <defs>
    <style>
      .cls-1 {
        fill: #513d35;
        stroke-width: 0px;
      }

      .cls-2 {
        fill: #b4c5e4;
        stroke-width: 2px;
      }

      .cls-2, .cls-3, .cls-4 {
        stroke: #513d35;
        stroke-miterlimit: 10;
      }

      .cls-3 {
        stroke-width: .25px;
      }

      .cls-3, .cls-4 {
        fill: none;
      }

      .cls-5 {
        font-size: 18px;
      }

      .cls-5, .cls-6 {
        fill: #42332c;
        font-family: Athelas-Regular, Athelas;
      }

      .cls-5, .cls-6, .cls-7 {
        isolation: isolate;
      }

      .cls-6 {
        font-size: 15px;
      }
    </style>
  </defs>
  <g id="Layer_1-2" data-name="Layer 1">
    <g>
      <path class="cls-1" d="M65.47,140.91c.41-.17.84-.3,1.28-.35,1.64-.21,3.26-.5,4.9-.72-.79-6.81-1.58-13.61-2.37-20.42-5.82,1.52-11.37,2.58-14.82,3.03-3.01.39-5.07-.48-5.31-2.2-.27-2.02,1.51-3.29,4.54-3.69,3.46-.45,9.2-.39,15.37.95-.57-4.89-1.13-9.77-1.7-14.66-8.62,2.22-15.67,1.72-25.05,3.02-11.4,1.6-18.61,7.82-16.19,22.86,1.81,11.26,10.57,16.7,21.51,15.17,6.3-.88,11.85-2.36,17.84-2.98h0Z"/>
      <path class="cls-1" d="M92.42,112.22c.1,1.08.73,1.74,1.53,1.67.74-.07,1.49-.74,1.84-1.73,1.34-3.79,3.81-7.94,10.13-8.45,7.76-.62,11.57,3.59,12.17,12.27.51,7.48-.48,13.38,1.82,19.18-6.98.48-13.95,1.03-20.92,1.65.35-7.08.3-12.55.02-15.72-.22-2.57-1.79-3.4-3.21-3.27-1.3.12-2.94,1.23-2.64,4.4.33,3.58,1.17,9.11,2.74,14.87-6.97.64-13.93,1.36-20.89,2.14-.36-12.46-2.22-27.1-5.13-39.87,7.33-.83,14.67-1.59,22.01-2.26-.09,3.86.13,10.89.53,15.14v-.02Z"/>
      <path class="cls-1" d="M119.76,103.89c7.19-.48,14.38-.89,21.57-1.23-.77,10.43-.24,20.85,1.46,31.16-6.98.33-13.97.72-20.94,1.19.52-10.44-.14-20.86-2.09-31.13h0ZM123.39,96.8c-.22-3.35,2.75-5.65,6.8-5.88,4.11-.23,7.19,1.72,7.36,5.07.14,2.82-2.45,5.16-6.76,5.41-4.26.24-7.21-1.79-7.39-4.61h-.01Z"/>
      <path class="cls-1" d="M167.24,126.01c-.45-.95-.95-1.48-1.69-1.46-.74.02-1.15.57-1.13,1.41.08,3.24.58,10.73,1.08,16.06-6.59.17-13.17.39-19.75.69.24-17.85-.52-30.19-2.41-40.13,7.13-.32,14.26-.57,21.4-.75-.09,1.5-.21,4.27-.16,6.13.03,1.08.6,1.79,1.41,1.77.75-.02,1.35-.63,1.89-1.6,1.97-3.7,4.97-7.67,11.3-7.75,9.3-.1,15.23,6.18,15.18,16.07-.05,10.5-5.78,17.42-14.74,17.52-6.73.08-10.65-4.32-12.39-7.95h.01ZM169,119.79c2.77-.06,4.94-2.43,4.9-4.95-.03-1.8-1.29-2.98-3.15-2.94-2.73.05-4.84,2.51-4.78,5.08.04,1.74,1.24,2.85,3.02,2.81h0Z"/>
      <path class="cls-1" d="M246,134.67c.23-.04.46-.08.7-.11-.16,0-.32.03-.48.04,1.77-.15,3.56-.47,5.35-.31.45.04.87.15,1.27.28.4-6.79.8-13.59,1.21-20.38-5.99.49-11.63.57-15.1.42-3.03-.14-4.9-1.35-4.83-3.09.08-2.04,2.05-2.98,5.1-2.85,3.48.16,9.11,1.21,14.94,3.6.29-4.91.58-9.82.87-14.73-8.86.69-15.7-1.03-25.15-1.37-11.47-.41-19.63,4.46-19.86,19.7-.17,11.4,7.48,18.29,18.49,18.68,6.15.22,11.7-.24,17.5.12h-.01Z"/>
      <path class="cls-1" d="M257.55,103.53c7.19.44,14.37.96,21.56,1.55-2.1,10.24-2.92,20.65-2.55,31.09-6.97-.57-13.95-1.07-20.93-1.51,1.85-10.28,2.54-20.7,1.93-31.14h-.01ZM262.06,96.97c.22-3.35,3.45-5.25,7.5-4.95,4.11.3,6.92,2.63,6.65,5.98-.22,2.81-3.09,4.81-7.4,4.49-4.25-.31-6.93-2.7-6.74-5.52h-.01Z"/>
      <path class="cls-1" d="M282.31,124.02c.13-1.49.26-2.99.39-4.48.21-2.39-.4-4.01-2.19-4.16.28-3.37.57-6.74.85-10.1,7.92.66,16.66-2.52,21.27-7.04.31.03.63.07.94.1-.16,1.57-.33,3.14-.49,4.71-.29,2.81.43,4.33,2.74,4.57,1.6.17,3.2.35,4.8.53-.38,3.36-.75,6.72-1.13,10.08-1.28-.14-2.55-.28-3.83-.42-2.28-.25-3.3,1.1-3.6,3.9-.03.24-.05.48-.08.72-.61,5.85.81,9.91,4.76,10.35.73.08,1.35.09,2.03,0-.01.12-.03.24-.04.36-1.98,3.28-6.88,6.65-14.07,5.93-8.33-.83-13.15-5.8-12.36-15.01v-.03Z"/>
      <path class="cls-1" d="M330.89,126.4c-.34,2.56,1,3.7,2.4,3.89,1.28.17,3.12-.54,3.56-3.69.48-3.45.92-8.84.69-14.56,0-.18,0-.36.01-.54,7.15.98,14.29,2.04,21.42,3.17-2.73,7.65-2.59,14.41-3.78,21.88-2.11,13.1-12.68,17.4-25.27,15.69-6.93-.94-13.01-4.77-14.47-8.45.01-.12.03-.24.04-.36.88.35,2.71.81,4.64,1.05,7.87.99,14.47-3.29,15.14-7.99.15-1.07-.3-1.86-1.09-1.97-.73-.1-1.54.4-2.16,1.28-2.38,3.37-6.07,5.29-11.57,4.6-7.18-.89-9.99-6.33-9.15-13.79.85-7.45,2.22-12.19,1.59-18.24,7.16.82,14.32,1.71,21.47,2.67-1.93,6.82-3.08,12.18-3.5,15.33l.03.03Z"/>
    </g>
    <g>
      <path class="cls-2" d="M34.98,123.57c-2.4-15.04,4.82-21.26,16.23-22.84,9.39-1.3,16.44-.79,25.07-3,.56,4.89,1.13,9.78,1.69,14.66-6.17-1.34-11.91-1.41-15.38-.96-3.03.39-4.82,1.67-4.54,3.69.23,1.73,2.29,2.6,5.31,2.2,3.45-.45,9-1.51,14.83-3.02.82,7.07,1.63,14.15,2.45,21.22-8.61-.21-15.7,2.08-24.14,3.25-10.95,1.52-19.71-3.93-21.51-15.19h0Z"/>
      <path class="cls-2" d="M101.34,107.12c.1,1.08.72,1.74,1.53,1.67.74-.07,1.5-.74,1.84-1.73,1.35-3.79,3.82-7.94,10.15-8.45,7.77-.61,11.58,3.6,12.17,12.27.51,7.48-.48,13.38,1.81,19.18-6.98.48-13.96,1.03-20.94,1.65.35-7.08.31-12.55.03-15.72-.22-2.57-1.79-3.4-3.21-3.27-1.3.12-2.94,1.23-2.64,4.4.33,3.58,1.16,9.11,2.73,14.87-6.97.64-13.94,1.35-20.91,2.13-.35-12.46-2.2-27.1-5.1-39.88,7.33-.83,14.68-1.58,22.02-2.25-.09,3.86.12,10.89.52,15.14h0Z"/>
      <path class="cls-2" d="M128.71,98.8c7.19-.48,14.39-.89,21.59-1.22-.77,10.43-.25,20.85,1.45,31.16-6.99.33-13.98.72-20.96,1.19.52-10.44-.13-20.86-2.08-31.13ZM132.35,91.71c-.21-3.35,2.75-5.65,6.81-5.88,4.12-.23,7.2,1.72,7.36,5.08.14,2.82-2.45,5.16-6.77,5.41-4.26.24-7.22-1.79-7.4-4.61Z"/>
      <path class="cls-2" d="M176.22,120.92c-.45-.95-.95-1.48-1.69-1.46-.74.02-1.15.57-1.13,1.41.08,3.24.58,10.73,1.08,16.06-6.59.17-13.18.39-19.77.68.24-17.85-.51-30.19-2.4-40.13,7.14-.32,14.27-.57,21.41-.75-.09,1.5-.21,4.27-.16,6.13.03,1.08.61,1.79,1.41,1.77.75-.02,1.35-.63,1.89-1.6,1.97-3.7,4.97-7.67,11.31-7.75,9.3-.1,15.24,6.18,15.2,16.07-.05,10.5-5.78,17.42-14.75,17.52-6.74.08-10.66-4.32-12.4-7.95ZM177.98,114.7c2.77-.06,4.95-2.43,4.91-4.95-.03-1.8-1.29-2.98-3.15-2.94-2.73.05-4.85,2.51-4.78,5.08.04,1.74,1.24,2.85,3.03,2.81h-.01Z"/>
      <path class="cls-2" d="M219.01,110.78c.23-15.23,8.39-20.11,19.87-19.7,9.45.34,16.3,2.05,25.17,1.36-.29,4.91-.58,9.82-.86,14.73-5.84-2.39-11.47-3.44-14.96-3.6-3.05-.14-5.02.81-5.1,2.85-.07,1.74,1.81,2.95,4.84,3.09,3.47.15,9.11.07,15.11-.42-.42,7.11-.83,14.21-1.25,21.32-8.43-1.69-15.8-.66-24.3-.96-11.03-.39-18.68-7.27-18.52-18.67h0Z"/>
      <path class="cls-2" d="M266.59,98.43c7.19.44,14.38.95,21.57,1.54-2.09,10.24-2.9,20.65-2.53,31.1-6.98-.57-13.96-1.07-20.95-1.5,1.85-10.29,2.53-20.7,1.91-31.14ZM271.1,91.86c.21-3.35,3.45-5.25,7.5-4.96,4.11.3,6.92,2.63,6.66,5.97-.22,2.81-3.09,4.81-7.41,4.5-4.26-.3-6.93-2.7-6.75-5.51Z"/>
      <path class="cls-2" d="M291.38,118.9c.13-1.49.26-2.99.39-4.48.21-2.39-.4-4.01-2.2-4.16.28-3.37.56-6.74.84-10.1,7.93.66,16.67-2.53,21.27-7.06.31.03.63.06.94.1-.16,1.57-.33,3.14-.49,4.71-.29,2.81.44,4.33,2.74,4.57,1.6.17,3.2.34,4.8.52-.37,3.36-.75,6.72-1.12,10.08-1.28-.14-2.55-.28-3.83-.42-2.29-.25-3.3,1.1-3.59,3.9-.02.24-.05.48-.07.72-.61,5.85.82,9.91,4.77,10.35.73.08,1.35.09,2.04-.02-.01.12-.03.24-.04.36-1.98,3.28-6.88,6.65-14.07,5.94-8.34-.82-13.16-5.79-12.39-15h.01Z"/>
      <path class="cls-2" d="M340,121.25c-.34,2.56,1,3.7,2.41,3.89,1.28.17,3.12-.54,3.56-3.69.47-3.45.91-8.84.68-14.56,0-.18,0-.36.01-.54,7.15.98,14.3,2.03,21.44,3.15-2.72,7.65-2.57,14.41-3.75,21.88-2.09,13.1-12.67,17.41-25.27,15.72-6.93-.94-13.03-4.76-14.49-8.43.01-.12.03-.24.04-.36.88.35,2.72.81,4.65,1.05,7.88.98,14.48-3.3,15.14-8,.15-1.07-.3-1.86-1.09-1.97-.73-.1-1.54.4-2.16,1.28-2.38,3.37-6.07,5.3-11.57,4.61-7.19-.89-10.01-6.32-9.17-13.78.84-7.45,2.21-12.19,1.57-18.24,7.17.81,14.33,1.7,21.49,2.65-1.93,6.82-3.07,12.18-3.49,15.33h0Z"/>
    </g>
    <g class="cls-7">
      <text class="cls-5" transform="translate(177.23 161.54)"><tspan x="0" y="0">| </tspan></text>
      <text class="cls-6" transform="translate(185.55 161.54)"><tspan x="0" y="0">est. 2024</tspan></text>
      <text class="cls-5" transform="translate(237.61 161.54)"><tspan x="0" y="0" xml:space="preserve"> |</tspan></text>
    </g>
    <path class="cls-1" d="M69.7,114.87h1.56c.18,0,.35-.02.53-.03h.28c.17.01.12,0-.14-.03.05,0,.1.02.15.04v-2.89c-.12.05-.23.07-.36.11-.3.08.31-.01.01,0-.23,0-.46.02-.69.04-.62.04-1.23.17-1.84.3-.26.06-.51.11-.77.15-.13.02-.27.05-.4.06.4-.04-.04,0-.12.01-.23.03-.46.06-.69.09-.08.01-.15.02-.23.04q-.15.03-.02,0t0-.02h-.21c-.23,0-.47.04-.7.1-1.03.29-1.53,1.74-.66,2.51.58.51,1.3.65,2.06.6.66-.05,1.33-.15,1.98-.27.7-.13,1.39-.34,2.09-.51.73-.17,1.45-.23,2.02-.78.62-.59.52-1.52,0-2.12-.42-.49-1.04-.64-1.65-.7-.08,0-.16-.02-.24-.02-.17,0,.4.09.11,0-.21-.06-.41-.12-.61-.18-.38-.13-.76-.25-1.14-.37-.1-.03-.43-.17-.02.02-.17-.08-.35-.16-.52-.23-.26-.1-.55-.16-.83-.14-.78.05-1.54.65-1.5,1.5.03.77.66,1.56,1.5,1.5.3-.02-.27-.05-.1-.02s-.3-.14-.07-.03.48.2.73.28c.35.11.7.21,1.04.33s.71.23,1.09.28c.18.02.37.05.56.06s-.36-.09-.13,0l-.22-.09c-.19-.17-.23-.2-.13-.08v-2.12s.32-.22.14-.12c.05-.03.33-.1.14-.07-.1.01-.2.04-.31.06-.24.04-.49.09-.73.15-.6.15-1.2.32-1.8.45-.31.06-.61.11-.92.16-.21.03.18-.02.09-.01-.03,0-.06,0-.09.01-.08,0-.16.02-.24.03-.19.02-.38.04-.57.03h-.14c-.14.01.32.07.2.03-.03-.01-.08-.03-.12-.03-.07-.02-.04,0,.1.04s.26.12.36.23l-.66,2.51c.16-.04.13-.04-.1,0h.21c.21,0,.4-.03.61-.06.15-.02.3-.05.45-.07.35-.06-.26.03.06,0,.65-.08,1.28-.18,1.92-.32.26-.06.51-.11.77-.16.06-.01.11-.02.17-.03.18-.03.15-.02-.09,0,.04.03.28-.02.33-.02.56-.03,1.15-.03,1.68-.24.6-.24,1.13-.74,1.1-1.45s-.45-1.22-1.1-1.45c-.51-.18-1.03-.11-1.55-.09s-1.09,0-1.64,0c-.78,0-1.54.69-1.5,1.5s.66,1.5,1.5,1.5h0v.03Z"/>
  </g>
  <g id="Layer_2" data-name="Layer 2">
    <line class="cls-3" x1="93.3" y1="137.19" x2="104" y2="136.26"/>
    <line class="cls-3" x1="119.01" y1="135.13" x2="128.97" y2="134.29"/>
    <path class="cls-1" d="M75.66,135.37h-1.86c-.4,0-.79.03-1.19.11-.3.06-.6.09-.89.19-.35.12-.73.26-1.04.46-.24.15-.46.29-.63.52-.38.49-.45,1.17-.13,1.72.38.67,1.05.78,1.73.86.41.05.78,0,1.2-.06l-.4.05c.43-.05.85-.11,1.28-.17l-.4.05c.5-.07,1.05-.15,1.55-.09l-.4-2.95c-.21.09-.42.19-.63.29l.36-.15c-.09.04-.17.07-.27.09l.4-.05c-.48.02-.93.13-1.39.24l.4-.05c-.53.02-1.02.21-1.53.3l.4-.05c-.28,0-.55.07-.82.13l.4-.05c-.3.04-.57.08-.86.16l.4-.05h-.08c-.4.04-.77.15-1.06.45-.26.26-.46.69-.44,1.06.03.76.66,1.57,1.5,1.5.31-.03.58-.1.88-.15l-.4.05c.27-.03.52-.09.78-.14l-.4.05c.31-.02.59-.08.89-.14.22-.04.43-.13.66-.17l-.4.05c.43,0,.81-.15,1.22-.24l-.4.05c.5-.02,1.02-.07,1.43-.38l-.36.15s.08-.03.12-.05c.36-.15.7-.32.9-.69.16-.3.22-.62.18-.96-.04-.31-.17-.64-.41-.86l-.3-.23c-.23-.14-.49-.2-.76-.2-.33-.04-.69,0-1.02.03-.47.04-.94.12-1.41.19l.4-.05c-.32.04-.64.07-.95.12l.4-.05c-.21.03-.43,0-.64-.02l.4.05c-.13-.02-.28-.03-.41-.08l.9.69-.03-.04.15,1.16v-.05c-.11.22-.24.44-.37.66l.04-.04-.3.23c.19-.1.38-.21.58-.29l-.36.15c.46-.19.97-.28,1.47-.35l-.4.05c.39-.03.78,0,1.17,0h1.19c.78,0,1.54-.69,1.5-1.5s-.66-1.5-1.5-1.5h-.04Z"/>
    <path class="cls-1" d="M99.02,133c-.87,0-1.73-.12-2.59-.12-.39,0-.79-.03-1.17,0-.24,0-.51.05-.74.12-.17.05-.33.12-.49.21-.28.16-.4.34-.59.59-.31.41-.25,1.1,0,1.51.2.33.46.56.73.82.16.15.34.3.54.41.34.17.6.22.99.26l-.4-.05c.14.02.26.09.4.12.22.05.45.07.68.07s.47-.03.69-.09c.14-.04.27-.1.41-.13l-.4.05s.08,0,.12,0l-.4-.05c.08,0,.15.05.22.07.18.06.4.09.59.08.3,0,.58-.1.87-.16l-.4.05c.11,0,.22-.02.33-.02.78,0,1.54-.69,1.5-1.5s-.66-1.5-1.5-1.5c-.39,0-.76.1-1.14.17l.4-.05h-.17l.4.05c-.28-.07-.53-.17-.83-.14-.21.02-.41.05-.6.12-.1.04-.21.07-.32.09l.4-.05c-.14,0-.27,0-.4,0l.4.05c-.1,0-.18-.05-.27-.08-.2-.07-.42-.08-.63-.1l.4.05c-.06,0-.11-.02-.17-.05l.36.15c-.05-.03-.1-.05-.14-.09l.3.23c-.18-.15-.37-.32-.52-.5l.23.3s-.05-.07-.07-.1v1.51l.02-.03-.23.3.03-.03-.3.23s.05-.03.08-.04l-.36.15c.1-.04.21-.06.32-.07l-.4.05c.29-.03.59,0,.88,0h.97c.66.02,1.32.11,1.99.11.78,0,1.54-.69,1.5-1.5s-.66-1.5-1.5-1.5h0l-.02.03Z"/>
    <path class="cls-1" d="M117.39,134.39c1.79,0,3.6.11,5.37-.16l-.4.05c.67-.08,1.27-.22,1.64-.86.46-.79.07-2.01-.9-2.2-.75-.15-1.53-.02-2.24.24-.21.08-.42.16-.63.26-.06.03-.12.06-.17.09-.19.12.09-.02.14-.04-.16.07-.32.13-.47.21-.02,0-.05.03-.07.04-.11.05-.05.03.17-.07-.22.02-.46.14-.63.27-.39.29-.65.6-.72,1.1s.09.9.41,1.26.84.54,1.31.54c.31,0,.59-.07.86-.22.31-.17-.32.07-.04.03l-.4.05c.28-.02.55-.05.83-.09l-.4.05c.3,0,.61-.03.9-.12l-.4.05h.07c.78-.04,1.54-.67,1.5-1.5-.03-.78-.66-1.54-1.5-1.5-.26,0-.51.07-.77.12l.4-.05c-.26,0-.52.03-.77.08l.4-.05c-.24.02-.49.02-.73.08-.15.04-.3.1-.43.17-.19.1-.09,0,.15-.05l.4-.05h-.11l.4.05c-.26-.05-.1.04.47.29l-.3,2.36c.2-.15-.38.13-.02,0,.15-.05.35-.14.51-.22.14-.07.1-.06-.13.04.13-.05.26-.11.39-.16.07-.04.14-.08.21-.12.24-.15-.32.11-.06.03.12-.04.23-.08.35-.12.2-.06.4-.1.61-.13l-.4.05c.16-.02.31-.03.47-.02l-.4-.05h.07c-.3-.72-.6-1.45-.9-2.19l-.02.03.54-.54c.23-.17.37-.12.17-.08l.4-.05c-.3.04-.6.08-.91.12l.4-.05c-.75.1-1.5.07-2.25.06s-1.57,0-2.35,0-1.54.69-1.5,1.5.66,1.5,1.5,1.5h0l-.02-.03Z"/>
    <path class="cls-1" d="M139.52,133.61h1.99c.41,0,.78,0,1.19-.06l.12-.02c.17-.03.15-.03-.05,0,.11-.06.38,0,.5,0h.5s.49-.04.16-.02c.18.03.35.06.53.08-.26-.04-.18-.03.27.03.13,0,.25.02.38,0,.34,0,.66.02,1,.05.05,0,.53,0,.14,0,.16,0,.34.06.49.09.77.13,1.65-.2,1.85-1.05.17-.73-.22-1.7-1.05-1.85-.71-.12-1.43-.24-2.15-.25h-.53c.49,0-.58-.08-.13,0-.45-.06-.87-.08-1.31-.09-.42,0-.81,0-1.22.08-.38.06.18.03-.15,0-.15,0-.31,0-.46,0-.68-.02-1.37,0-2.05,0-.78,0-1.54.69-1.5,1.5s.66,1.5,1.5,1.5h-.02Z"/>
    <path class="cls-1" d="M142.42,130.94h4.38c.06,0,.25,0,.26,0l.1-.74c-1.26-.04-2.54-.37-3.78-.59-.59-.1-1.18-.2-1.78-.27-.24-.03-.5-.08-.73,0s-.47.31-.68.45c-.31.21-.19.68.19.7.84.04,1.69,0,2.54,0s1.64.2,2.46.22v-.75c-.45,0-.89-.09-1.33-.14-.31-.03-.78-.15-1.03.1s-.15.67-.15.97c0,.19.04.42-.09.56s-.34.25-.48.38c-.35.33.18.86.53.53.24-.22.59-.36.71-.68s.08-.75.07-1.1v-.19l-.12.12h.11c.17.05.4.04.58.06.4.05.81.13,1.21.12.48,0,.48-.74,0-.75-.82,0-1.64-.19-2.46-.22s-1.69.03-2.54,0l.19.7c.13-.09.27-.16.39-.25.06-.05.12-.12.2-.14.08-.03.23.02.32.03.18.02.37.05.55.07.56.08,1.12.18,1.68.28,1.14.2,2.31.49,3.47.52.43,0,.5-.62.1-.74-.25-.08-.58-.02-.83-.02h-4.01c-.48,0-.48.75,0,.75h0l-.03.02Z"/>
    <path class="cls-1" d="M142.35,133.77c.39.03.77.04,1.17.03.2,0,.37.02.56.04.22.02.42,0,.64-.05.45-.1.89-.08,1.35-.08s.93,0,1.39.08.67-.63.2-.72-.96-.11-1.45-.11-.96-.04-1.42.05c-.21.04-.41.11-.63.09-.19-.02-.36-.06-.56-.05-.42.02-.83.02-1.25-.02-.48-.04-.48.71,0,.75h0Z"/>
    <path class="cls-1" d="M152.28,103.25c0-.54-.08-1.08-.15-1.61s-.3-.97-.47-1.46c-.08-.24-.12-.45-.1-.7s0-.52-.1-.76c-.18-.41-.54-.69-.78-1.05-.18-.27-.58-.23-.69.09-.17.52-.02,1.05.16,1.54s.29,1.03.47,1.54c.16.44.34.82.52,1.24.16.36.37.79.79.9.19.05.42-.06.46-.26.17-.74.03-1.5.04-2.25,0-.43,0-.87,0-1.31,0-.37.04-.74-.16-1.07-.32-.52-1.13-.67-1.67-.46-.68.25-.52,1.08-.43,1.64.11.69.3,1.43.38,2.09.05.47.1,1.12.63,1.3.7.24.91-.66,1.01-1.16.13-.69.44-1.34.11-2.02-.09-.18-.21-.35-.31-.53-.04-.08-.08-.15-.11-.23-.03-.06,0,.07,0-.03-.02-.21-.03-.42-.08-.62-.06-.23-.18-.46-.42-.53-.29-.09-.54.1-.72.3-.32.36.21.89.53.53.02-.03.1-.09.11-.11,0-.06.04.02,0,0-.07-.03-.14-.01-.22-.06-.04-.02,0-.02,0-.01,0,.03.05.22.06.28.04.37.1.65.31.98.13.22.3.43.31.7s-.11.51-.17.76c-.09.35-.07.89-.35,1.16l.27-.11c-.14,0-.02,0-.02,0,0,.03-.04-.08-.04-.08-.04-.11-.06-.22-.08-.33-.05-.33-.09-.65-.16-.98-.09-.45-.16-.91-.24-1.36-.04-.22-.06-.44-.07-.66v-.19c0-.08.05-.06,0-.02.21-.12.7-.04.82.17.09.15.05.36.05.53v.68c0,.5,0,.99.02,1.49.02.44.07.89-.03,1.32l.46-.26c-.17-.04-.31-.49-.38-.66-.15-.37-.33-.73-.45-1.11-.14-.42-.23-.85-.38-1.26s-.33-.84-.2-1.26l-.69.09c.22.33.61.61.76.98.08.21,0,.46,0,.69s.06.45.14.67c.15.43.37.84.45,1.3.08.51.14,1.05.14,1.57,0,.48.75.48.75,0h0l-.06-.03Z"/>
    <path class="cls-1" d="M123.65,95.39v3.12c0,.46-.03.93.08,1.38s.31.84.49,1.25c.38.83.94,1.62,1.52,2.32.31.38.65.74.96,1.12.23.29.39.69.66.94.25.22.62.06.64-.27.03-.43-.23-.81-.44-1.17-.32-.55-.61-1.11-.94-1.65s-.68-1.05-.94-1.61c-.16-.33-.22-.63-.27-.99-.04-.3-.17-.58-.18-.88h-.75c0,.33,0,.66.08.98.09.37.26.69.38,1.04l.63-.36c-.26-.27-.38-.67-.58-.98-.15-.23-.36-.52-.41-.8l-.36.47c-.11-.01.36.75.41.82.25.37.51.74.77,1.11s.52.7.74,1.07c.18.29.35.59.59.84.09.09.25.15.36.1.68-.28.19-1.13-.05-1.57-.14-.25-.29-.5-.43-.75-.18-.34-.31-.87-.71-1-.25-.08-.46.13-.47.36-.04.66.39,1.31.66,1.88.34.72.72,1.42,1.08,2.13.12.25.52.24.65,0,.32-.61-.06-1.59-.25-2.2-.13-.4-.29-.78-.42-1.18-.09-.3-.09-.62-.32-.85s-.62-.05-.64.27c-.04.58.3,1.15.55,1.66.21.43.41,1.11.8,1.39.11.08.26.05.38,0,.57-.26.36-1.2.36-1.69,0-.44.12-1-.4-1.18-.15-.05-.35.03-.42.17-.2.38-.1.81.02,1.21.15.52.34,1.01.54,1.52l.69-.29c-.18-.31-.36-.62-.53-.94s-.23-.61-.35-.94c-.17-.47-.48-.99-.85-1.32s-.89.2-.53.53c.41.38.62.95.78,1.47.17.55.53,1.08.83,1.58.21.35.84.12.69-.29-.13-.34-.27-.68-.38-1.03-.08-.25-.38-.87-.25-1.12l-.42.17c-.11-.16-.16-.17-.13-.03v.58c0,.1.06.92,0,.95h.38s-.16-.4-.2-.48c-.09-.19-.19-.37-.29-.56-.21-.41-.52-.9-.49-1.36l-.64.27c.1.1.12.51.18.66.1.29.22.58.31.87.1.31.2.62.27.93.05.2.22.66.11.85h.65c-.3-.61-.63-1.2-.93-1.81-.25-.52-.75-1.24-.71-1.83l-.47.36c-.14-.04.07.27.08.29.07.14.14.29.22.43s.16.27.24.41c.11.19.22.38.31.57.04.08.06.17.1.24.15.27-.19.09.24-.08l.36.1c-.32-.32-.5-.76-.76-1.12-.3-.44-.62-.86-.92-1.3-.25-.36-.49-.72-.7-1.1-.16-.29-.32-.5-.66-.54-.27-.03-.4.26-.36.47.06.33.31.69.48.98.24.38.38.81.69,1.13.25.26.75,0,.63-.36-.1-.3-.25-.57-.34-.87-.09-.32-.1-.63-.1-.95,0-.48-.76-.48-.75,0,0,.29.11.55.16.83.05.26.05.52.12.78.17.59.53,1.15.85,1.67.34.55.67,1.1.98,1.66.2.36.67.93.64,1.35l.64-.27c-.13-.11-.19-.31-.29-.45s-.21-.28-.32-.41c-.29-.36-.6-.7-.9-1.05-.55-.64-1.07-1.38-1.44-2.14-.19-.39-.39-.81-.49-1.24s-.06-.93-.06-1.38v-2.92c0-.48-.75-.48-.75,0h0v.03Z"/>
    <path class="cls-1" d="M64.95,140.91c.37,0,.76.03,1.12-.05.14-.03.29-.07.43-.11.1-.03.59-.12.14-.07.17,0,.33-.03.49-.08.16-.04.12-.04-.12,0,.02-.03.4-.02.45-.02.4-.04.6-.11.96-.27.15-.07.13-.06-.07.03-.32.04-.25.02.21-.03.14-.03.1-.03-.14.02.16,0,.31-.03.46-.07-.55,0-.01.03.1.03.39,0,.78-.03,1.16-.15.58-.17,1.16-.29,1.76-.38.34-.05.73-.4.9-.69.19-.32.27-.8.15-1.16s-.34-.71-.69-.9c-.38-.2-.73-.21-1.16-.15-.6.08-1.18.21-1.76.38-.07.03-.14.05-.21.06.22-.03.24-.03.07-.02h-.33c-.25,0-.47.05-.73.06-.13.04-.08.03.16-.02-.16,0-.32.03-.47.07.59-.06-.21.03-.38.09-.15.06-.31.13-.46.19.1-.07.22-.09.34-.08-.02-.02-.31,0-.34,0-.07,0-.66.02-.68.11.34-.03.28-.02-.19.03-.08,0-.15.03-.22.05-.14.04-.3.07-.44.11-.31.09.36.02-.05,0h-.48c-.78,0-1.54.69-1.5,1.5s.66,1.5,1.5,1.5h.02Z"/>
    <path class="cls-3" d="M165.31,141.87l10.19-4.37"/>
    <path class="cls-1" d="M165.91,137.15c-.17,0-.35.02-.52.06-.14.03-.28.1-.41.17-.06.04-.11.08-.16.12-.06.04-.11.08-.16.13s-.09.12-.14.17c-.04.05-.1.12-.13.18s-.07.15-.09.21c-.03.08-.08.17-.1.25s-.03.19-.04.28c0,.1-.03.19-.04.29l.05-.4c0,.1-.03.2-.04.29,0,.05-.02.1-.03.15,0,.04-.02.09-.04.13l.15-.36c-.07.14-.16.28-.18.44-.06.2-.07.4-.03.6,0,.2.07.39.18.56.09.17.22.32.39.42.14.13.31.22.51.27l.4.05c.27,0,.52-.07.76-.2l.3-.23c.19-.19.31-.41.39-.66,0-.02,0-.03,0-.05l-.15.36c.11-.23.2-.45.24-.7s.07-.5.1-.75l-.05.4c0-.05.02-.1.04-.15l-.15.36s.02-.04.03-.06l-.23.3.03-.03-.3.23s.02,0,.03-.02l-.36.15s.03,0,.05,0l-.4.05h.1c.21,0,.4-.04.58-.13.19-.06.35-.16.48-.31.15-.14.25-.3.31-.48.09-.18.14-.37.13-.58l-.05-.4c-.07-.25-.2-.47-.39-.66l-.3-.23c-.23-.14-.49-.2-.76-.2h-.01Z"/>
    <path class="cls-1" d="M165.26,141.55c.18,0,.37.02.55,0,.16-.03.32-.12.46-.21.29-.19.56-.4.84-.6s.57-.4.84-.61c.14-.1.28-.21.42-.31.07-.05.14-.1.2-.14.04-.02.07-.05.11-.07.03-.02.08-.03.03-.02.27-.04.37-.46.17-.63-.08-.07-.16-.14-.24-.22-.02-.02-.04-.04-.06-.07-.03-.05-.04-.06-.02-.02.02.05,0,.11-.05.15.05-.02.12-.14.14-.17.08-.14.07-.28,0-.42-.09-.18-.35-.23-.51-.13-.19.11-.22.33-.13.51v.02c0-.1-.02-.19-.03-.29.04-.13.06-.11,0-.04-.05.05-.08.1-.11.17-.06.13-.06.28-.02.42.08.25.32.46.51.61l.17-.63c-.15.02-.28.14-.4.22-.13.09-.26.19-.39.28-.28.21-.55.41-.83.61s-.56.4-.83.59c-.11.07-.26.22-.39.24-.12.02-.28,0-.41,0-.48,0-.48.75,0,.75h0l-.02.02Z"/>
    <path class="cls-1" d="M167.41,138.73c.44,0,.9-.04,1.33,0l-.19-.05-.03-.02v-.53c-.15.18-.41.3-.61.42-.25.15-.5.3-.75.44s-.49.27-.74.4c-.23.12-.5.2-.72.35-.33.22-.17.65.19.7.27.03.59-.16.81-.29.24-.14.48-.3.72-.47s.47-.35.66-.56c.18-.2.4-.45.5-.69s-.14-.46-.36-.47c-.14,0-.26.06-.39.11-.16.07-.33.14-.48.23-.3.18-.57.4-.82.64s-.46.49-.69.74-.47.48-.69.74c-.11.13-.23.26-.31.41s-.09.36-.08.51c.02.35.26.67.64.52.3-.12.58-.31.86-.46s.53-.31.8-.46c.31-.16.59-.37.9-.52.18-.09.37-.18.55-.26.15-.06.32-.11.46-.2.41-.25.03-.9-.38-.65-.1.06-.28.12-.4.17-.17.07-.33.15-.5.23-.31.15-.58.35-.88.51s-.57.34-.87.49c-.15.08-.3.16-.45.24-.12.06-.29.19-.4.21h.2-.03c.06.03.11.06.17.09.05.04.05.18.05.06v-.14c0-.11,0,0,0-.04.09-.15.24-.28.35-.41.26-.27.52-.54.77-.82s.49-.53.78-.75c.14-.11.29-.21.45-.29.07-.04.15-.07.22-.1.04-.02.09-.04.13-.05.02,0,.04-.02.06-.03.04-.02.02,0-.06.02l-.36-.47-.02.04.1-.17c-.15.17-.27.36-.42.53s-.32.3-.49.42c-.19.13-.38.26-.58.38-.09.06-.18.11-.28.16-.05.03-.1.05-.15.07l-.06.02c-.07.02-.08.02-.05,0l.19.7c.23-.15.5-.24.75-.36.26-.13.52-.27.77-.42s.5-.29.75-.44c.23-.14.53-.29.71-.5.14-.17.14-.36,0-.53-.18-.22-.53-.15-.78-.15h-.87c-.48,0-.48.75,0,.75h.02Z"/>
    <path class="cls-1" d="M166.72,141.19c.24,0,.46,0,.69-.12.21-.1.39-.27.58-.39.18-.11.36-.23.53-.35.19-.12.42-.18.62-.26.47-.2.83-.54,1.28-.76s.93-.46,1.32-.78c.15-.12.15-.41,0-.53-.26-.21-.69-.15-1.01-.16-.38,0-.76.03-1.13.11s-.74.19-1.11.3c-.18.05-.35.11-.53.16-.14.04-.37.15-.52.14l.1.74c.5-.15,1.02-.24,1.53-.33.25-.04.49-.09.74-.13s.51-.06.74-.16.35-.32.22-.55c-.08-.16-.24-.21-.41-.25-.23-.05-.45-.12-.68-.16s-.51-.12-.73-.03c-.19.08-.32.29-.42.47-.22.37-.27.91.05,1.24.36.37.88.17,1.19-.13.29-.28-.02-.69-.36-.63-.31.05-.62.18-.88.34-.3.18-.64.39-.75.74-.1.32,0,.77.39.84.28.05.66-.1.86-.29.35-.33-.18-.86-.53-.53.06,0,.04,0-.05.02-.03,0-.06.02-.09.03-.05.02-.08.03-.13.03l.27.11s.06-.05.12-.09c.11-.09.23-.16.35-.23.2-.12.44-.21.67-.25l-.36-.63s-.11.07-.13.11h-.04s.04.03.06.04c0-.04-.04-.11-.04-.15,0-.07.05-.14.08-.2.02-.04.05-.08.08-.12,0-.02.03-.04.04-.06t0,.02h-.2c.23.03.46.07.68.12.11.03.23.06.34.08.03,0,.16.04.14.03l-.13-.13v.02c.09-.18.16-.37.24-.55-.22.09-.47.11-.7.15-.26.05-.52.09-.78.14-.52.09-1.03.18-1.53.33-.42.12-.32.71.1.74.31.02.68-.16.98-.25.34-.1.67-.21,1.01-.3s.66-.16,1.01-.17.66,0,.99.02l-.27-.11.03.02v-.53c-.34.28-.78.47-1.17.66-.42.21-.77.54-1.21.73-.19.08-.38.13-.57.22-.16.08-.3.2-.46.29-.19.11-.37.23-.55.35-.2.15-.32.18-.56.18-.48,0-.48.75,0,.75h0v.04Z"/>
    <path class="cls-1" d="M168.79,140.25c.26-.02.45-.11.68-.21.22-.09.44-.17.65-.27.47-.22.87-.55,1.33-.79.43-.22.87-.42,1.31-.61.22-.1.46-.17.7-.22.12-.03.24-.05.36-.06h.08c.15-.05.05.19-.12-.13l.13-.51c.05-.04-.1,0-.14,0-.06,0-.12.02-.18.03-.16.03-.29.11-.44.17-.29.13-.6.13-.9.22-.56.17-1.02.58-1.54.84l.38.65c.31-.19.64-.34.98-.46s.69-.17,1.01-.32c.26-.13.23-.52,0-.65s-.51-.18-.75-.28c-.32-.14-.65-.24-.99-.31-.47-.09-.67.63-.2.72.31.06.61.15.9.27.13.05.26.11.39.16.08.03.21.05.28.09v-.65c-.14.07-.32.09-.47.13-.18.05-.36.11-.54.18-.34.13-.67.27-.98.47-.41.26-.05.86.38.65.51-.25.97-.7,1.54-.8.3-.06.58-.11.85-.23.14-.06.25-.12.41-.13.14,0,.27,0,.39-.1.18-.12.23-.32.13-.51-.21-.41-.93-.2-1.26-.12-.54.14-1.01.4-1.51.63-.23.11-.47.19-.69.31-.24.13-.47.29-.71.43s-.48.28-.75.39c-.13.05-.26.09-.39.15-.11.05-.2.12-.34.13-.48.03-.48.78,0,.75h.02Z"/>
    <path class="cls-1" d="M255.32,106.68c-.41,0-1.12-.16-1.29.35-.04.12,0,.28.1.36.32.29.72.43,1.12.58s.81.36,1.23.44c.5.09,1.45-.03,1.5-.66,0-.12-.08-.27-.19-.32-.32-.16-.67-.2-1.03-.22-.39-.02-.77-.06-1.16-.07-.34-.01-.69-.04-1.03-.06-.24-.02-.56-.03-.75-.2-.36-.32-.89.21-.53.53.51.45,1.28.42,1.92.46.42.03.84.04,1.26.07.31.02.66,0,.94.14l-.19-.32c0-.06.02-.12.06-.16t0,0s-.02.02-.08.03c-.07.02-.21.05-.24.05-.1.01-.21.01-.31.02-.03,0-.11-.02,0,0-.08-.02-.16-.04-.23-.07-.34-.11-.67-.25-1-.38-.26-.1-.55-.19-.76-.38l.1.36c-.03.1-.08.16-.17.19h.03s.04-.02,0,0h.31c.13,0,.26.02.39.02.48,0,.48-.74,0-.75h0Z"/>
    <path class="cls-1" d="M258.42,108c0-.23.05-.53-.06-.74s-.36-.32-.58-.39c-.44-.13-.91-.11-1.36-.02-.5.1-.84.48-.84,1s.37.85.84,1.01,1.09.18,1.58.13c.21-.02.46-.05.64-.17.3-.19.26-.57.06-.81-.31-.38-.84-.48-1.31-.43-.25.03-.49.11-.74.16-.3.07-.6.13-.9.21-.22.06-.46.16-.67.02-.07-.05-.23-.15-.25-.19-.05-.11-.03-.27-.03-.38v-.91c0-.3-.07-.59-.07-.89,0-.48-.75-.48-.75,0,0,.4,0,.8-.03,1.21-.02.37-.08.74-.1,1.11,0,.34.11.62.41.79.21.12.55.25.79.2.36-.08.37-.45.31-.74-.07-.37-.11-.73-.12-1.1s-.03-.74-.03-1.11v-.55c0-.18-.05-.37-.04-.55,0-.42-.65-.52-.74-.1-.08.36-.1.68-.05,1.04.05.33.14.67.24.99.09.28.2.54.32.8.1.22.28.47.55.45.22-.02.35-.16.38-.38.04-.35-.1-.74-.21-1.06-.06-.17-.11-.35-.17-.52-.05-.16-.13-.33-.15-.5l-.47.36c.13.04.25.17.35.26.14.13.28.27.41.41.28.28.53.58.78.88l.45-.59c-.36-.25-.7-.52-1.02-.82-.29-.28-.61-.61-.8-.98l-.42.55c.26.06.53.28.76.42.28.17.57.34.84.51s.53.34.79.52c.23.16.41.34.71.3s.35-.45.17-.63c-.28-.27-.6-.51-.93-.7-.16-.1-.33-.18-.5-.27-.08-.04-.15-.09-.23-.13-.07-.03-.16-.12-.08,0l-.32.56c.38,0,.73.15,1.08.28.13.05.25.09.38.12.06.01.12.03.18.04.09.02,0-.03.04.02l-.1-.17v.03c.07-.14.13-.28.18-.42-.12.08-.35.04-.49.06-.25.04-.49.11-.74.19-.23.07-.45.15-.68.22-.25.08-.44.19-.51.46-.12.47.6.67.72.2-.02.08-.14.08,0,.07.04,0,.09-.03.14-.04.09-.03.19-.06.28-.09.22-.07.43-.15.65-.2.17-.04.32-.07.49-.08.18,0,.37-.03.53-.13.13-.08.24-.27.17-.42-.16-.38-.52-.38-.86-.5-.48-.16-.94-.36-1.45-.37-.28,0-.48.33-.32.56.09.14.21.2.35.27.18.09.36.19.54.29.35.19.69.41.97.7l.17-.63h-.03.2c.06.02-.04-.04-.01-.01-.04-.05-.12-.09-.16-.12-.13-.09-.26-.18-.39-.26-.25-.16-.51-.33-.76-.49s-.52-.31-.78-.46c-.25-.14-.49-.33-.77-.4-.32-.08-.58.26-.42.55.22.41.58.8.91,1.13.36.35.76.65,1.17.94.15.11.38.04.48-.1.12-.16.09-.34-.03-.49-.28-.35-.57-.67-.89-.99-.28-.28-.59-.65-.98-.75-.21-.06-.5.11-.47.36.04.37.18.72.29,1.07.1.31.27.68.23,1.01l.38-.38c.21-.02.17.11.16.04,0-.03-.04-.07-.05-.1-.03-.06-.06-.13-.09-.19-.1-.22-.17-.45-.23-.68-.13-.48-.23-.92-.12-1.41l-.74-.1c0,.13.03.26.04.39v.47c0,.33,0,.66,0,.99s0,.63.05.95c.02.17.05.34.08.51.02.1.06.23.05.32l.05-.19v-.02c.07-.03.12-.06.18-.1.13-.03.06,0-.02-.03-.03,0-.06-.02-.1-.03-.06-.02-.15-.05-.18-.1.04.05,0,.02,0-.04v-.16c0-.13.03-.26.04-.39.06-.61.07-1.22.08-1.83h-.75c0,.29.07.56.07.85v.95c0,.28,0,.63.2.86.17.2.48.41.73.49.29.09.6.02.88-.05.3-.07.61-.15.91-.22.26-.06.53-.16.8-.17.11,0,.22,0,.33.04.05.02.1.03.15.07.01,0,.03.02.04.03.06.08.07.05.02-.08l.1-.17c.05-.06.09-.03,0-.01-.06.01-.11.03-.17.04-.11.02-.23.03-.34.03-.23,0-.48,0-.71-.04-.25-.03-.75-.11-.67-.46.03-.13.16-.16.28-.18.16-.03.36-.06.53-.06s.34.03.49.09c0,0,.1.06.1.05-.04.02-.04-.24-.07-.04-.02.12,0,.25,0,.37,0,.48.75.48.75,0h.02Z"/>
    <path class="cls-1" d="M264,100.74v3.75c0,.31-.05.63.18.88.15.16.38.13.53,0,.29-.25.29-.75.33-1.1.06-.45.08-.91.1-1.36.03-.89.04-1.77.13-2.66h-.75c0,1.15-.08,2.3-.08,3.45,0,.55-.02,1.09,0,1.64.01.25-.04.67.18.85s.53.12.63-.17c.15-.46.23-.96.33-1.43s.19-.98.26-1.47.1-.96.13-1.44c.02-.33.08-.66-.22-.88-.21-.16-.47.03-.55.22-.1.27-.08.62-.08.91-.01.35,0,.7,0,1.05,0,.59-.09,1.26.06,1.83.1.37.61.34.72,0,.1-.31.04-.67,0-.99-.04-.38-.07-.76-.11-1.15-.03-.36-.08-.71-.1-1.07-.02-.28,0-.67-.17-.91-.28-.39-.93-.01-.65.38.11.16.07.55.09.73.03.33.07.65.1.98s.06.62.09.93c.03.27.12.63.03.89h.72c-.06-.23-.04-.47-.04-.7v-1.82c0-.26-.04-.63.06-.87l-.55.22c-.25-.19-.1-.21-.14-.05-.01.04,0,.15,0,.18,0,.19-.02.38-.04.58-.03.42-.07.84-.14,1.26s-.15.8-.23,1.2-.15.83-.28,1.21l.63-.17c.12.09.04.12.05-.02v-.14c0-.2-.02-.39-.02-.59v-1.54c0-1.04.07-2.07.08-3.11,0-.49-.7-.47-.75,0-.08.78-.1,1.55-.12,2.33-.01.4-.03.8-.06,1.2-.01.18-.03.36-.06.54-.01.11-.01.44-.1.52h.53c.07.07.03,0,.03-.05v-4.05c0-.48-.75-.48-.75,0h0Z"/>
    <path class="cls-1" d="M288.52,105.02c0-.24-.04-.5.06-.72.1-.24.23-.46.33-.71.17-.46.27-.95.38-1.43.05-.24.1-.48.19-.7.08-.2.19-.4.24-.62s0-.45,0-.68.04-.47.07-.7l-.74.1c-.04-.1-.04,0-.06.08-.04.12-.05.26-.05.38-.01.24,0,.48,0,.72,0,.55.09,1.1.11,1.65.01.24.02.48.02.72,0,.27-.06.5-.13.76-.06.24-.13.48-.18.73-.04.22-.03.49-.11.69l.46-.26c.08.03.16.23.18.12,0-.03-.02-.08-.02-.11-.01-.07-.01-.13-.02-.2-.02-.2-.04-.4-.06-.61-.06-.62-.1-1.24-.08-1.86h-.75c0,.28-.07.56-.09.83s-.03.56-.02.84c.02.4.08.82.38,1.11.35.33.88-.2.53-.53-.21-.2-.17-.64-.17-.9,0-.46.12-.9.12-1.35,0-.48-.74-.48-.75,0-.02.77.06,1.52.13,2.29.03.39,0,.92.43,1.09.2.08.4-.09.46-.26.07-.21.06-.47.11-.69.06-.28.14-.56.21-.83.14-.53.14-1.03.11-1.58-.03-.59-.12-1.17-.11-1.76,0-.25-.04-.55.03-.79.04-.16.14-.31.06-.48-.17-.4-.68-.33-.74.1-.03.21-.04.43-.07.64-.03.24.04.48-.04.72-.07.22-.19.42-.26.64-.07.23-.11.48-.17.72-.11.48-.21.98-.41,1.43-.1.22-.23.41-.29.65-.06.26-.04.52-.04.78,0,.48.75.48.75,0h0v-.02Z"/>
    <line class="cls-3" x1="172" y1="96" x2="187" y2="95"/>
    <path class="cls-1" d="M177.35,99.71v-.65c0-.32.03-.65-.06-.96-.25-.82-1.07-1.36-1.92-1.14-.58.15-.95.62-1.13,1.16-.11.33-.17.68-.25,1.01-.14.58-.24,1.15-.31,1.74l.05-.4c-.03.23-.08.46-.08.7l.05-.4c-.07.43-.09.85.17,1.23.31.46.8.76,1.36.74.42-.01.85-.18,1.2-.41.45-.29.91-.66,1.27-1.06.39-.43.7-.9.97-1.41.24-.43.42-.88.72-1.27l-.23.3c.1-.13.21-.25.33-.35l-.3.23c.11-.08.23-.14.36-.21.41-.22.66-.57.81-1.01.11-.31.05-.68-.08-.98s-.33-.57-.61-.72c-.3-.15-.54-.22-.88-.24-.78-.03-1.54.71-1.5,1.5.04.84.66,1.47,1.5,1.5h.06c-.25-.07-.5-.13-.76-.2l.06.03-.69-1.69v.03c.12-.22.25-.44.37-.66l-.03.03.3-.23c-.09.06-.2.1-.3.16-.21.13-.42.29-.59.47-.27.28-.51.61-.71.95-.16.27-.27.56-.43.84s-.31.57-.51.83l.23-.3c-.27.35-.6.64-.95.92l.3-.23c-.16.12-.33.24-.51.32l.36-.15c-.06.03-.11.05-.18.06l.4-.05h-.06c.43.25.86.49,1.3.74l-.02-.03.15,1.16c.03-.2.05-.39.06-.59l-.05.4c.03-.21.06-.42.08-.62l-.05.4c.06-.45.16-.9.27-1.34.08-.32.13-.67.25-.97l-.15.36s.02-.04.03-.06l-.23.3h.02c-.22.11-.44.24-.66.37h.02-.8l.04.02-.9-.69.02.03-.15-.36s.02.06.02.08l-.05-.4c.04.38,0,.78,0,1.17,0,.78.69,1.54,1.5,1.5s1.5-.66,1.5-1.5h0Z"/>
    <path class="cls-1" d="M180.12,97.15c.27,0,.53.03.79-.02.28-.05.55-.22.77-.39,0,0,.05-.03.02-.01.03-.02.05-.04.08-.05.05-.03.09-.06.14-.09,0,0,.09-.04.05-.03s.05,0,.05,0c.07-.02.14-.05.2-.08.07-.04.13-.1.19-.15,0-.01.08-.07,0-.01.03-.03.07-.05.1-.07.11-.08.21-.2.23-.34.03-.19-.05-.41-.26-.46-.18-.04-.43.05-.46.26,0,.08.04-.08.05-.07l-.04.04s-.02.01,0,0c-.03.02-.06.05-.09.07-.04.03-.09.07-.12.11s0-.02.02,0t0,0h-.03c-.24.06-.43.22-.62.37.03-.02,0,0-.02.01s-.04.03-.07.04c-.05.03-.1.05-.15.08s-.1.05-.15.07c.04-.01,0,0-.02,0s-.05.01-.07.02c-.02,0-.05,0,0,0h-.26c-.11,0-.22,0-.32-.01-.2,0-.38.17-.38.38s.16.37.38.38h0v-.05Z"/>
    <path class="cls-1" d="M175.45,97c-.12,0-.23.01-.35,0h.1c-.05,0-.1,0-.15-.02l.09.04c-.05-.02-.1-.05-.15-.08l.08.06s-.06-.05-.08-.08l.06.08s-.06-.09-.08-.14l.04.09-.18-.42.04.09c-.02-.06-.05-.12-.06-.18v.1s0-.04,0-.05v.1-.04l-.04.09s0-.01,0-.02l-.06.08s0-.01.02-.02l-.08.06s0,0,.02-.01l-.09.04h.02-.1s.02.01.03.01h-.1.02l-.09-.04s0,0,.02.01l-.08-.06s0,.01.02.02c.13.15.4.14.53,0,.14-.16.14-.37,0-.53s-.39-.19-.57-.09c-.16.08-.25.26-.25.43,0,.23.13.43.22.63l-.04-.09c.04.11.08.22.14.31.08.11.17.2.29.27.14.08.28.12.44.14.11.01.22,0,.33,0,.2,0,.38-.17.38-.38s-.16-.38-.38-.38h0l.02-.02Z"/>
    <path class="cls-1" d="M174.55,96.78c.96,0,1.91.02,2.87-.08.47-.05.94-.08,1.41-.08.24,0,.48-.02.72-.03h.31c.07,0,.14-.01.2-.02.09-.02.05-.04-.14-.05v-.65c-.16.1-.36.1-.54.12-.26.03-.51.06-.77.08-.47.05-.95.11-1.42.19s-.9.15-1.35.22c-.23.03-.46.07-.69.13-.17.05-.35.06-.5.16-.3.18-.2.57.09.69.18.07.39.07.58.08.31.03.63.04.94.06.63.05,1.25.06,1.88.06.48,0,.48-.75,0-.75-.59,0-1.18,0-1.77-.05-.28-.02-.56-.04-.84-.06-.18-.01-.41,0-.59-.07l.09.69c.12-.08.37-.1.51-.13.23-.05.46-.07.69-.11.45-.07.9-.15,1.35-.22.48-.08.97-.13,1.45-.18.4-.04.89-.02,1.24-.25.23-.15.25-.5,0-.65-.17-.1-.32-.04-.5-.03-.25.02-.51.03-.76.03-.49,0-.97.02-1.46.07s-.97.1-1.47.1h-1.56c-.48,0-.48.75,0,.75h0l.03-.02Z"/>
    <path class="cls-1" d="M181.42,96.07c-.41,0-.82-.01-1.23,0-.09,0-.19.01-.28.01-.06,0-.13-.01-.19,0,.03,0,.02,0-.03,0-.11-.04-.07.02.14.17l-.26.46c.2-.05.44-.02.64-.02h.73c.45,0,.9.01,1.34,0,.4-.01.77-.09,1.15-.23.17-.06.33-.16.38-.34s-.05-.38-.22-.47c-.3-.17-.7-.15-1.03-.17-.46-.03-.92-.06-1.38.04s-.86.25-1.32.29c-.41.04-.82,0-1.23-.03-.48-.03-.48.72,0,.75.38.02.76.05,1.15.03.42-.02.85-.12,1.25-.23s.81-.15,1.25-.12c.22.02.43.03.65.05.06,0,.11,0,.17.02.09.02.17.09.06,0l-.1-.17v.02c.02-.1.03-.19.04-.29.07-.14.14-.09,0-.06-.05.01-.09.03-.14.05-.15.05-.31.09-.47.11-.34.03-.69.02-1.03.02h-1.12c-.33,0-.69-.04-1.02.05-.21.06-.3.26-.26.46.07.4.59.4.9.39.47-.02.94-.01,1.42-.01s.48-.75,0-.75h0l.03-.03Z"/>
    <path class="cls-1" d="M174.58,96.62c.72,0,1.45,0,2.17-.03.35-.02.68-.16,1.02-.17s.69-.04,1.03-.04c.31,0,.63,0,.94-.05s.57-.14.9-.14c.35,0,.7.04,1.05,0s.65-.13.98-.13l-.27-.64c.1-.11.09-.02-.03-.04-.13-.02-.3.02-.43.03-.3.02-.59.06-.89.08-.59.04-1.18.1-1.77.14s-1.08-.05-1.64-.11c-.23-.03-.45-.02-.68.01s-.47.11-.69.11c-.48-.02-.48.73,0,.75.27.01.47-.07.72-.1.28-.04.53-.03.8,0,.62.09,1.2.11,1.83.06s1.29-.11,1.94-.16c.28-.02.57-.05.85-.06.2-.01.37-.02.51-.18.21-.24.07-.63-.27-.64-.3,0-.61.04-.9.1-.35.07-.72.03-1.08.03-.65,0-1.25.19-1.9.19-.33,0-.65.04-.98.04-.36,0-.69.12-1.05.15-.72.07-1.47.05-2.2.05-.48,0-.48.75,0,.75h.04Z"/>
    <path class="cls-1" d="M312.88,121.97c0-.57.07-1.19-.03-1.76-.05-.27-.17-.53-.18-.81s0-.55,0-.82c0-.54-.04-1.1,0-1.65.04-.49.4-.82.42-1.31h-.75c0,.28-.09.56-.14.84-.06.32-.11.63-.23.93-.24.6-.46,1.2-.6,1.83s-.35,1.18-.39,1.8c-.03.44-.06.96.26,1.31.23.25.59.36.88.14.24-.19.33-.52.37-.8.14-.84.08-1.72.08-2.56,0-.76.05-1.52.2-2.27s.32-1.41.32-2.18c0-.48-.75-.48-.75,0,0,.37,0,.73-.08,1.09s-.19.73-.25,1.1c-.12.68-.18,1.36-.19,2.05,0,.88.12,1.87-.08,2.74-.02.1-.15.3-.01.22.12-.06.08.04.01-.14-.05-.12-.03-.27-.03-.4.02-.64.23-1.21.36-1.83.15-.68.4-1.31.64-1.96.12-.32.16-.66.23-.99.06-.3.15-.6.15-.91,0-.48-.73-.48-.75,0,0,.21-.18.4-.26.59-.09.21-.13.43-.15.67-.05.56-.01,1.14,0,1.71,0,.53-.02,1.02.13,1.54.17.59.08,1.25.08,1.85,0,.48.75.48.75,0h0v-.02Z"/>
    <path class="cls-1" d="M320.83,102.93c.48,0,.48-.75,0-.75s-.48.75,0,.75h0Z"/>
    <path class="cls-1" d="M320.45,102.52c0,1.2-.13,2.4-.17,3.6-.02.6-.03,1.2-.07,1.8-.05.63-.24,1.24-.29,1.87-.04.48.71.48.75,0,.05-.63.24-1.24.29-1.87.05-.6.05-1.2.07-1.8.05-1.2.18-2.4.17-3.6,0-.48-.75-.48-.75,0h0Z"/>
    <path class="cls-1" d="M320.79,109.54c0-.4-.02-.81,0-1.21s.06-.78.06-1.17-.06-.75-.09-1.13c-.02-.2-.03-.39-.04-.59v-.32s.03-.06.01-.06l-.55-.22c.21.66.28,1.36.46,2.03s.38,1.4.5,2.11c.03.15.03.3.06.45,0,.05.01.1.03.15v.06c0,.14.09.09.28-.14.01-.04-.02-.23-.03-.31-.02-.17-.02-.33-.01-.5.02-.42.36-1.09-.19-1.3-.16-.06-.34.04-.42.17-.1.15-.15.37-.21.54-.04.13-.07.45-.18.52-.03.02-.13,0-.17.02-.06.04.15.17.14.17,0,0,.02-.11.03-.12.06-.22.21-.41.31-.61.22-.44.41-.91.49-1.39s.01-.99.13-1.46-.61-.67-.72-.2c-.15.63-.04,1.28-.23,1.91-.09.3-.21.6-.36.87s-.31.52-.36.82c-.04.26,0,.55.26.69.21.11.55.09.77,0,.29-.11.44-.38.54-.66.08-.22.11-.53.24-.73l-.42.17h.02c-.07-.05-.15-.11-.22-.16-.08-.12,0-.1-.04,0-.01.04-.02.09-.03.13-.04.17-.06.34-.08.51-.02.18-.02.37,0,.55s.01.42.07.6c.1.31.45.57.78.49.39-.09.42-.5.37-.83-.12-.78-.27-1.55-.48-2.32-.11-.4-.22-.8-.3-1.21s-.14-.84-.27-1.25c-.08-.24-.33-.34-.55-.22-.39.21-.39.64-.38,1.03.02.45.08.9.11,1.35s0,.87-.03,1.3c-.03.48,0,.97,0,1.45s.75.48.75,0h0l-.05.02Z"/>
    <path class="cls-1" d="M344.07,105.74c.09,0,.19.01.29.02-.08,0,.02.01.04.02.04.01.09.03.13.04.06.02.14.03.2.03.02,0,.11,0,.04,0,.05,0,.09.02.14.03.04,0,.09.01.13.02t.02,0s-.02,0,.01,0c.02,0,.04,0,.06.01.04,0,.09.02.13.03.1.02.2.04.3.04h.15c-.06,0,0,0,.02.01.1.02.19.05.29.05.2,0,.38-.17.38-.38s-.16-.38-.38-.38q.06.01.02,0s-.04,0-.05-.01c-.04,0-.08-.02-.12-.03-.1-.02-.21-.03-.31-.03.07,0-.06,0-.07-.01-.03,0-.07-.01-.1-.02-.1-.02-.2-.05-.3-.05h-.05s.04,0,0,0c-.06-.02-.14-.03-.21-.03,0,0-.12,0-.04,0-.04,0-.09-.02-.13-.04-.19-.06-.39-.08-.59-.08s-.38.18-.38.38c0,.21.16.37.38.38h0Z"/>
    <path class="cls-1" d="M344.41,105.83c0,1.33-.08,2.61-.29,3.92-.1.64-.21,1.28-.3,1.93-.09.6-.12,1.22-.26,1.81l.55-.22c.18.11.06.11.07,0,0-.06-.03-.14-.05-.2-.06-.26-.1-.51-.13-.77-.06-.49-.09-.99-.09-1.49s.03-.96.09-1.44.19-.99.22-1.49c.02-.42-.66-.52-.74-.1-.3,1.63-.24,3.31-.25,4.96,0,.48.75.48.75,0,0-1.57-.07-3.2.22-4.76l-.74-.1c-.03.58-.18,1.16-.24,1.74s-.08,1.14-.05,1.71.08,1.11.18,1.65c.06.31.09.77.38.95.2.12.49,0,.55-.22.15-.64.19-1.31.28-1.96s.21-1.28.3-1.92c.21-1.33.29-2.63.29-3.97,0-.48-.75-.48-.75,0h0v-.03Z"/>
    <path class="cls-1" d="M343.73,112.69v-1.21c0-.4.03-.81.04-1.22.01-.43-.61-.5-.74-.1-.37,1.17-.54,2.4-.89,3.57l.63-.17-.03-.04.1.17c-.03.1-.03.12,0,.04.02-.04.03-.08.03-.12.01-.06.02-.13.03-.19.02-.14.05-.28.08-.42.06-.27.13-.53.21-.79s.17-.51.27-.76c.09-.23.17-.48.31-.69l-.69-.09c.06.16.03.38.03.55v.67c.01.31-.04.84.23,1.06.19.16.45.14.59-.08.21-.33.32-.72.46-1.08.07-.18.14-.37.21-.55.05-.12.1-.3.19-.39l-.63-.17c.12.34.08.73.13,1.08.02.19.12.34.33.37.18.02.36-.08.41-.27.13-.49.18-1.03.39-1.5l-.7-.19c-.02.25-.12.51-.17.75-.06.26-.12.53-.18.79-.12.54-.28,1.1-.3,1.66-.02.49.72.48.75,0,.02-.33.15-.67.23-1,.04-.16.07-.33.11-.5.01-.05.03-.11.05-.16.02-.06.09-.17,0-.04h-.53l.04.05c.08.09.25.14.36.1.14-.05.23-.13.31-.26.02-.04.03-.07.05-.11t0,.01s.03-.07.07-.1l-.63-.17c.06.26.02.57.02.83,0,.3.01.6,0,.89-.01.2.18.38.38.38.22,0,.36-.17.38-.38.04-.43.08-.86.08-1.3h-.75v.66c0,.19,0,.42.05.6.09.31.52.36.69.09.14-.24.17-.51.19-.78.02-.29.04-.6.03-.89s-.1-.55-.14-.83-.03-.57-.13-.83c-.16-.45-.88-.26-.72.2.07.21.07.44.1.66.03.25.1.49.13.73s0,.49-.01.74c0,.2,0,.45-.1.63l.69.09c-.04-.14-.02-.33-.03-.48v-.58c0-.48-.75-.48-.75,0,0,.44-.04.86-.08,1.3h.75c.02-.32,0-.65,0-.97s.02-.64-.05-.95-.42-.33-.63-.17c-.08.06-.13.15-.17.23-.02.04-.12.2-.05.12l.17-.1h-.03c.12.04.24.08.36.11l-.04-.05c-.12-.14-.41-.15-.53,0-.21.26-.26.63-.33.95-.1.42-.24.84-.27,1.27h.75c.02-.54.19-1.08.3-1.61s.3-1.06.34-1.59c.03-.36-.55-.52-.7-.19-.24.53-.32,1.12-.47,1.68l.74.1c-.06-.42-.01-.88-.15-1.28-.09-.27-.41-.37-.63-.17-.13.13-.2.3-.28.46-.09.2-.17.4-.24.6-.14.37-.25.77-.46,1.11l.59-.08c.06.05.04.11.02,0-.01-.1-.02-.2-.02-.3,0-.18-.01-.36-.02-.54s0-.37,0-.56.01-.38-.05-.55c-.12-.3-.5-.38-.69-.09-.17.26-.26.59-.38.87-.13.31-.23.62-.33.94s-.18.65-.23.98-.18.61.05.91c.18.23.55.08.63-.17.36-1.18.52-2.4.89-3.57l-.74-.1c0,.41-.04.81-.04,1.22v1.21c0,.48.75.48.75,0h0v.05Z"/>
    <path class="cls-1" d="M346.41,110.2c0-.66.19-1.85-.66-2.1-.43-.13-.79.21-.91.6-.1.32-.08.69,0,1.01s.26.66.57.82c.39.21.84.11,1.18-.14.37-.26.44-.7.24-1.1s-.59-.67-.99-.81c-.49-.18-.97-.04-1.05.52-.06.43-.13,1.03.17,1.38.11.13.31.13.45.06.13-.07.19-.17.26-.29.09-.15.2-.3.3-.45.14-.21.33-.41.36-.67.02-.19-.19-.39-.38-.38-.13.01-.27.04-.4.05-.15,0-.26.02-.39.09l.51.13-.02-.03.05.19c-.05-.4-.04-.78.02-1.18s.15-.81.14-1.22c0-.33-.06-.79-.32-1.03-.09-.08-.26-.15-.37-.21-.17-.08-.36-.11-.53-.16-.47-.13-.66.59-.2.72.13.03.28.06.4.1s.22.12.34.16l-.17-.1c.13.15.1.48.1.66-.01.29-.07.58-.11.86s-.08.55-.08.82c0,.24,0,.56.11.78.09.18.34.23.51.13-.04.03.12,0,.15,0,.09-.01.17-.03.26-.04l-.38-.38v.04c.01-.06.03-.13.05-.19-.07.13-.2.28-.29.41-.06.1-.13.2-.19.29-.03.05-.07.1-.1.15-.02.04-.08.09-.02.06l.45.06c.06.07.01-.11.01-.13v-.24c0-.1-.01-.34.04-.4l-.17.1c.18-.07.43.11.57.22.08.07.31.28.24.38-.07.12-.33.17-.44.09s-.15-.25-.18-.37c-.03-.15-.04-.33-.01-.48,0-.06.08-.16.07-.2,0-.02-.05,0-.05.02l.03.02c0,.05.05.12.06.17.02.09.01.19.01.28v.89c0,.48.75.48.75,0h0v.04Z"/>
    <path class="cls-1" d="M344.16,105.74h.06s-.06-.01,0,0c.04.01.09.02.13.03.06.01.12.02.18.02h.06s.08,0,.02,0,.01,0,.02,0c.02,0,.05.01.07.02.03,0,.15.04.16.03,0,0-.09-.02-.03,0,.02,0,.03,0,.05.01.07.01.14.01.21.02,0,0,.07,0,.03,0s.01,0,.02,0c.04,0,.07.02.11.02,0,0,.32.03.32.02,0,0-.07-.01,0,0,.02,0,.04.01.07.02.03,0,.05.02.08.03.04.01-.07-.04-.04-.02.02,0,0,0-.02-.02-.03-.02-.06-.05-.08-.08l-.05-.19h0c.02.2.16.39.38.38.19,0,.39-.17.38-.38-.03-.27-.23-.39-.47-.46-.08-.02-.17-.04-.26-.04-.03,0-.13.02-.15,0,.02.02.07.01,0,0-.02,0-.04-.01-.07-.02-.07-.01-.14-.02-.2-.03h-.08c-.07,0,.03.01,0,0-.02,0-.04,0-.06-.01h-.1c.06,0,.07,0,.05,0-.03-.02-.08-.03-.12-.03-.07-.02-.14-.03-.22-.03h-.1s-.02,0,.03,0c0,0-.35-.06-.37-.06-.2,0-.38.18-.38.38,0,.21.16.37.38.38h0Z"/>
    <path class="cls-1" d="M343.88,106.58v2.55c0,.17.03.36,0,.53-.02.16-.13.31-.17.47-.1.4-.12.83-.21,1.23-.1.47.63.67.72.2.08-.41.11-.83.21-1.23.04-.17.14-.33.18-.5.04-.19.01-.41.01-.6v-2.64c0-.48-.75-.48-.75,0h.01Z"/>
    <path class="cls-1" d="M329.34,138.77c.72,0,1.44.02,2.15,0s1.37-.12,2.06-.21c.49-.06.97-.17,1.44-.3.43-.12.83-.31,1.01-.74.09-.23-.14-.48-.36-.47-.59,0-1.15.15-1.7.32s-1.09.29-1.66.36c-.52.06-1.04.14-1.56.16-.18,0-.7.05-.74-.19l-.17.42c.21-.12.56-.11.79-.12.28,0,.57,0,.85.02.64.03,1.28.07,1.91.12.59.05,1.18.12,1.78.12.39,0,.8-.13,1.09-.41.19-.18.12-.58-.17-.63-.43-.07-.85-.03-1.29-.03h-3.12c-.17,0-.49.06-.65,0,.06.02-.02-.04-.04-.06-.06-.07-.11-.16-.17-.23-.08-.09-.16-.17-.24-.26-.03-.04-.07-.11-.11-.14,0,0-.02-.03-.03-.04-.07.17-.04.24.11.21.46.12.98.14,1.45.23.51.1,1.02.2,1.54.28.24.04.49.09.73.13s.51-.02.75.03v-.72c-.89.33-1.9.44-2.84.56-.46.06-.92.08-1.38.13s-.89.07-1.36-.02l.28.36c.04.34-.25.19-.03.17.07,0,.15-.04.22-.05.11-.02.15-.02.28-.04.54-.06,1.08-.09,1.61-.14s1.06-.09,1.59-.13c.45-.03.9-.07,1.31-.26s.1-.75-.29-.69c-.65.11-1.29.22-1.95.27-.31.03-.61,0-.91.03h-.13c-.11.36-.07.5.11.43.12,0,.28-.08.4-.11.64-.16,1.3-.23,1.95-.29.35-.04.7-.06,1.04-.1.31-.03.64-.1.95-.09v-.75c-.38,0-.76,0-1.14,0s-.73-.11-1.08-.21c-.47-.13-.66.59-.2.72.81.23,1.59.24,2.43.24.48,0,.48-.74,0-.75-.44,0-.9.09-1.34.13-.46.04-.93.09-1.39.15-.41.05-.83.11-1.24.2-.29.06-.72.12-.94.34s-.19.58.07.76.68.1.97.09c.88,0,1.75-.18,2.61-.33l-.29-.69c-.49.22-1.14.16-1.66.2-.6.05-1.2.1-1.79.15-.4.03-1.99,0-1.91.73.02.16.1.33.28.36.97.19,1.97.05,2.94-.07s2.09-.23,3.04-.59c.31-.12.4-.65,0-.72-.29-.06-.58,0-.87-.05-.33-.06-.66-.11-1-.17-.63-.11-1.25-.25-1.88-.34-.46-.07-1.2-.31-1.6.04-.33.29-.14.69.08.97.1.12.21.23.31.35.12.14.2.31.36.41s.34.12.53.12h2.93c.58,0,1.22-.09,1.79,0l-.17-.63c-.31.3-.86.19-1.24.16-.58-.04-1.16-.11-1.74-.15s-1.18-.09-1.77-.1c-.47,0-1.11,0-1.52.23-.16.09-.2.26-.17.42.16,1.01,1.71.73,2.39.66s1.34-.13,1.99-.31,1.32-.44,2.02-.44l-.36-.47c-.08.19-.65.26-.84.31-.49.12-.97.2-1.47.26-1.21.15-2.4.15-3.62.15-.48,0-.48.75,0,.75h0Z"/>
    <path class="cls-3" d="M315.55,136.83c2.33-.4,5.92,1.49,5.83,4.36-.06,2.05-1.99,4.02-3.65,3.96-2.8-.11-5.01-6.01-3.48-7.74.37-.42.89-.51,1.29-.58h.01Z"/>
    <path class="cls-1" d="M318.38,143.06s.36,0,.11,0,.05.03.11.04c.08.03.17.06.25.09.29.11.01-.04-.03,0,.05-.03.39.2.44.23.14.08.28.18.42.27.16.11,0,0-.06-.05.07.08.18.14.25.21l.39.33c.29.26.57.53.87.79.57.5,1.35.59,1.97.12.53-.41.84-1.34.39-1.94-.2-.26-.4-.52-.6-.77-.07-.08-.13-.17-.2-.25-.03-.04-.07-.08-.1-.13.11.15.14.18.07.09-.27-.36-.53-.73-.79-1.1s-.47-.72-.7-1.08-.41-.79-.66-1.13c-.24-.33-.49-.58-.9-.69-.36-.1-.84-.05-1.16.15-.73.47-.91,1.3-.54,2.05.27.56.66,1.07.98,1.6s.65,1.1.99,1.64.72,1.11,1.12,1.63.88,1.18,1.48,1.51c.69.37,1.67.19,2.05-.54s.2-1.65-.54-2.05c-.2-.11.13.11.12.11l-.13-.13c-.1-.1-.19-.2-.28-.31s-.18-.21-.27-.32c-.04-.04-.08-.13-.13-.16.06.04.16.22.04.06-.36-.48-.68-.98-.99-1.5s-.6-1.01-.91-1.51-.69-1.01-.95-1.55l-2.59,1.51c.25.33.41.74.63,1.09.24.38.48.76.73,1.13s.49.71.75,1.06c.19.25.37.49.56.73.08.1.16.2.23.3.05.07.31.4.06.08l2.36-1.82c-.7-.61-1.36-1.27-2.14-1.8-.39-.26-.8-.45-1.23-.63-.48-.2-.97-.35-1.5-.32-.78.04-1.54.66-1.5,1.5.03.77.66,1.55,1.5,1.5h0l.03-.02Z"/>
    <path class="cls-1" d="M321.06,143.6c0-.39-.03-.79,0-1.18l-.2.76.03-.06-.54.54c.45-.33.8-.62.98-1.16.16-.48-.01-1.03-.19-1.48-.32-.85-.82-1.65-1.78-1.85-.51-.11-1.09-.03-1.46.39-.91,1.03-.5,2.58.05,3.67.51,1,1.17,1.92,1.91,2.76s1.53,1.53,2.4,2.18c.42.31.86.59,1.32.84.58.31,1.17.65,1.86.64.76,0,1.56-.68,1.5-1.5s-.5-1.42-.89-2.1c-.32-.56-.63-1.13-.92-1.71-.15-.31-.3-.62-.43-.93.09.22-.08-.22-.08-.23-.06-.15-.11-.29-.16-.44-.22-.67-.41-1.33-.7-1.97l-2.05,2.05c-.12-.08-.1-.08,0,0,.07.06.14.12.22.19.15.13.31.27.46.41.32.29.63.59.96.86.2.16.4.31.61.45.02.02.23.17.14.09s.12.1.14.11c.06.05.38.3.33.26-.09-.08.27.21.24.19.45.35-.05-.07.07.06.1.12.27.23.41.3,1.12.6,2.58-.39,2.2-1.69-.29-1-1.03-1.95-1.6-2.81-.29-.44-.59-.87-.89-1.3-.16-.23-.32-.46-.49-.68-.11-.15-.22-.29-.34-.44-.25-.31.16.25-.05-.08l-2.36,1.82c.43.43.56.66.92,1.16s.69.96,1.05,1.43c.41.54.83,1.06,1.28,1.56.41.45.81.93,1.32,1.26.68.44,1.66.14,2.05-.54s.24-1.48-.32-1.99c-.5-.46-1.1-.59-1.76-.63-.87-.06-1.73-.11-2.6-.21-.25-.03.2.04-.04,0-.1-.02-.2-.03-.29-.05-.2-.04-.39-.09-.57-.16-.22-.08.16.09-.05-.02-.09-.05-.17-.1-.25-.15-.08-.06-.08-.05,0,0l-.11-.1c-.07-.07-.15-.13-.22-.2-.66-.63-1.27-1.32-1.89-1.99-.53-.58-1.59-.58-2.12,0-.57.62-.56,1.5,0,2.12,1.13,1.25,2.26,2.68,3.9,3.25.78.27,1.66.32,2.48.39.36.03.71.06,1.07.08.2,0,.41.02.62.03.1,0,.21,0,.31.03-.5-.31-.67-.37-.51-.18l-.39-.66.02.05.15-1.16-.02.04,2.05-.54c.28.18.03,0-.04-.07-.08-.08-.15-.16-.23-.24-.21-.22-.41-.44-.62-.67-.18-.21-.36-.41-.54-.63-.15-.19-.21-.26-.41-.53-.69-.94-1.33-1.98-2.15-2.82-.53-.53-1.39-.57-1.97-.12s-.8,1.3-.39,1.94c.08.12.17.23.26.35-.05-.06.26.34.16.21s.15.2.17.23c.07.09.13.18.19.27.3.43.6.87.89,1.3.28.41.55.83.81,1.25.13.21.26.43.38.64.04.07.09.15.13.22.05.08.14.39.06.12l2.2-1.69s.26.21.1.08c.01,0-.45-.35-.24-.19-.14-.11-.29-.22-.43-.33.12.1.02,0-.04-.04-.21-.17-.43-.35-.66-.5-.07-.05-.14-.09-.2-.13.19.12,0,0-.08-.08-.66-.59-1.3-1.21-2.02-1.73-.51-.37-1.4-.22-1.82.23-.48.53-.52,1.18-.23,1.82.07.16-.08-.26.02.06.05.15.1.3.15.45.09.3.18.6.28.89.22.64.49,1.27.79,1.88.26.54.54,1.07.83,1.6.15.27.3.54.45.8.06.11.12.21.18.32.04.06.07.13.1.19.13.27.11.17-.04-.32l1.5-1.5c.09,0,.17.03.25.07l-.24-.12c-.19-.09-.37-.19-.55-.29-.36-.21-.7-.44-1.05-.68-.14-.11-.17-.12-.07-.05-.08-.06-.16-.13-.24-.19-.16-.13-.31-.27-.47-.41-.28-.26-.56-.54-.82-.82-.58-.62-.89-1.01-1.35-1.77-.1-.17-.19-.35-.29-.53l-.14-.27c.04.13.04.11-.02-.06-.03-.1-.06-.19-.08-.29.01.15.01.13,0-.05,0-.1,0-.2.01-.3-.05.3-.06.36-.02.19l-.39.66.04-.04-1.46.39c.17.04-.22-.15-.27-.19l-.09-.11c.06.13.08.14.04.05-.09-.16.07.2.08.21.04.12.08.51.06.08l.2-.76c.34-.31.42-.4.25-.27-.23.13-.4.31-.54.54-.17.28-.22.57-.24.89-.01.36,0,.74,0,1.1,0,.78.69,1.54,1.5,1.5s1.5-.66,1.5-1.5h0l.08-.04Z"/>
    <path class="cls-1" d="M319.07,142.58c-.12-.17-.23-.33-.36-.49-.04-.04-.07-.09-.11-.13.11.15.13.16.04.02.14.35-.01-.08-.03-.15-.04-.14-.08-.28-.11-.42-.09-.33-.17-.66-.24-1-.03-.13-.05-.25-.07-.38-.01-.07-.1-.61-.04-.23-.09-.62-.11-1.25-.15-1.88-.04-.66-.09-1.44-.46-2.02-.33-.52-1.07-.93-1.69-.69-.43.16-.72.37-.98.75-.03.05-.07.1-.1.15-.12.2.05-.04.09-.1-.24.36-.41.51-.56.91-.09.26-.12.53-.15.8,0,.05-.01.11-.01.16.45-.87.53-1.1.24-.7-.13.14-.22.31-.27.51-.06.2-.09.43-.09.64,0,.02-.02.22,0,.24.04-.23.05-.28.03-.17-.01.08-.02.16-.03.24-.02.1-.03.19-.03.29l.04-.24-.02.06c-.06.47-.07.53-.03.18l2.51-.66-.04-.05.44,1.06c-.02-.15-.02-.29-.04-.43-.04-.26-.04-.27,0,0v-.25l-2.95.4c-.02-.21-.03-.24,0-.08.02.17.04.33.07.5l-.02-.19c0,.07.02.15.02.22.01.1.02.21.04.31.03.26.04.27,0,.03.05.07,0,.37,0,.46l2.8-.76c.02.05.11.54.1.27-.01-.14-.03-.29-.06-.43.03.3.04.36.03.19-.05-.75-.53-1.37-1.3-1.47s-1.38.37-1.65,1.07c-.24.63.05,1.33.21,1.94.06.23.14.45.19.68.03.11.07.22.1.33.06.18,0,.27,0-.15l.44-1.06-.02.02,2.36.3c.2.42.07.11.04-.03-.02-.1-.04-.19-.07-.28-.08-.25-.17-.48-.22-.74s-.08-.52-.17-.78c-.07-.2-.15-.38-.24-.57-.08-.16-.07-.14.03.07-.06-.15-.12-.29-.19-.44-.32-.72-1.42-.94-2.05-.54-.75.48-.88,1.28-.54,2.05-.25-.56.13.23.16.37-.08-.36-.01,0,0,.08.06.26.09.52.15.77.06.24.17.47.23.71.07.3.14.55.28.84.39.81,1.77,1.03,2.36.3.41-.51.55-1.02.38-1.65-.06-.2-.12-.4-.17-.61-.06-.25-.14-.51-.21-.76-.04-.13-.09-.27-.14-.39-.03-.17-.03-.12,0,.15,0-.17-.01-.11-.03.18l-2.95-.4c.01.18.04.35.07.54,0-.07-.05-.42-.03-.16.04.43.13.7.31,1.09.26.58,1.12.88,1.69.69.61-.2,1.13-.77,1.1-1.45v-.46c-.02-.17-.04-.34-.07-.51.03.22.03.24.01.07-.02-.24-.06-.48-.09-.72.03.24.04.27.02.09-.01-.17-.04-.34-.08-.51-.17-.73-.94-1.17-1.65-1.07s-1.31.72-1.3,1.47v.37l.05.4c-.02-.23-.02-.3-.03-.19.05.12.06.5.06.51.09.28.24.48.43.72.32.41.99.51,1.46.39.54-.15.86-.54,1.05-1.05.06-.15.09-.31.08-.48-.04.26-.05.32-.03.18.04-.16.06-.33.05-.49-.04.23-.05.29-.03.17.09-.1.07-.46.06-.63-.02-.31-.1.37-.01.02l-.39.66c.2-.25.39-.47.46-.8.04-.16.05-.33.06-.5.01-.09.04-.32-.01.06.03-.19,0,0-.04.08-.2.35.01,0,.07-.09.07-.09.12-.16.18-.25.09-.14.21-.18-.08.09l-.66.39.04-.02-1.69-.69c-.09-.26-.12-.31-.07-.17.02.06.04.11.05.17.02.07.03.13.04.2.03.17.03.16,0-.05.09.22.04.61.05.85.04.73.12,1.45.23,2.17.1.63.25,1.25.42,1.87.1.36.2.73.38,1.05.12.21.28.4.43.59.18.22-.22-.28,0,.02.24.33.49.58.9.69.36.1.84.05,1.16-.15.62-.4,1.03-1.38.54-2.05h0l.02-.03Z"/>
    <path class="cls-1" d="M317.01,141.41h-.08l.4.05s-.04,0-.06-.02l.36.15-.06-.03.3.23s-.04-.04-.07-.06c-.11-.11-.24-.2-.37-.29-.05-.04-.11-.06-.16-.1l.3.23s-.04-.03-.05-.05l.23.3s-.01-.02-.02-.03c-.09-.17-.22-.32-.39-.42-.14-.13-.31-.22-.51-.27-.2-.06-.4-.07-.6-.03-.2,0-.39.07-.56.18l-.3.23c-.19.19-.31.41-.39.66l-.05.4c0,.27.07.52.2.76.03.07.1.14.14.18.03.04.09.13.14.18.11.11.23.19.36.28.05.03.1.06.14.09l-.3-.23s.05.05.08.08c.11.11.24.21.37.29.12.07.26.12.39.17.01,0,.03,0,.04,0,.16.03.33.06.5.06.21,0,.4-.04.58-.13.19-.06.35-.16.48-.31.15-.14.25-.3.31-.48.09-.18.14-.37.13-.58l-.05-.4c-.07-.25-.2-.47-.39-.66l-.3-.23c-.23-.14-.49-.2-.76-.2h.02Z"/>
    <path class="cls-1" d="M76.99,97.31c.11,0,.21-.02.31-.08.01,0,.02-.01.03-.02.02-.01.03-.02.05-.04.04-.03.05-.04.02-.01-.01.01-.03.02-.05.03-.03.01-.04.02-.02,0,.04-.01.07-.03.11-.05.01,0,.03-.01.04-.02.04-.02-.08.02-.01,0,.03,0,.07-.02.1-.03.07-.02.15-.04.22-.07.09-.03.17-.07.25-.11.02,0,.03-.01.05-.02.01,0,.06-.03.01,0-.06.02.01,0,.03,0s.03-.01.05-.02c.09-.03.17-.06.25-.1.03-.01.07-.03.1-.05.01,0,.03-.02.04-.03.03-.02.05-.01-.02,0,.19-.05.32-.27.26-.46s-.26-.31-.46-.26c-.09.02-.15.07-.23.11-.01,0-.03.01-.04.02-.04.02,0,0,.02,0-.03,0-.06.02-.09.03-.09.03-.17.06-.26.1-.03.01-.06.03-.09.04-.02,0-.03.01-.05.02.03-.02.06-.02,0,0-.14.05-.29.08-.44.14-.03.01-.05.02-.08.04-.01,0-.06.03,0,0,.08-.03-.05.02-.04.01-.03.01-.05.02-.07.03,0,0-.13.1-.06.05.05-.04,0,0,0,0-.04.01.09-.03.04-.02-.04,0,.11,0,.03,0-.2,0-.38.17-.38.38s.16.38.38.38h0Z"/>
    <path class="cls-1" d="M78.08,96.62c-.12,0-.25-.01-.37.02-.16.04-.27.17-.32.31-.04.12-.04.24-.04.36s0,.24.02.36.05.23.07.34c0,0,.01.08,0,.04,0-.05,0,.05,0,.05v.73c0,.11.01.13.01.08,0-.03,0-.02,0,.02l.56-.32s.06.05.08.09c-.02-.03-.02-.02,0,.03,0-.02-.02-.05-.02-.06-.01-.05-.02-.09-.03-.14,0-.04-.02-.08-.03-.12,0-.02-.02-.12,0-.04-.01-.09-.01-.17-.02-.25,0-.2-.05-.41-.16-.59-.03-.04-.06-.09-.09-.12-.03-.03-.02-.03,0,0-.01-.02-.02-.03-.03-.05l.02.04s0-.04,0,0c-.01-.07-.01-.13-.03-.2l-.26.46h.02-.2c-.06-.03-.07-.03-.04-.01.02,0,.04.02.06.03.03.02.06.03.09.05.07.04.13.09.2.14s-.04-.03.03.02c.03.02.05.04.08.06.06.05.12.1.17.16.05.05.1.11.14.17.03.03.05.07.08.1.07.09-.04-.06.03.04.03.04.06.09.09.14.08.11.16.17.28.22.23.09.48-.14.47-.36,0-.2-.07-.39-.1-.58-.02-.09-.03-.17-.05-.26-.01-.05-.02-.1-.03-.14,0-.02,0-.05-.01-.07,0-.04,0-.05,0-.02s0,.02,0-.02v-.07c0-.07-.01-.13-.03-.2-.04-.12-.12-.23-.23-.29s-.26-.09-.38-.06c-.07.02-.13.06-.19.11.02-.02-.14.19-.04.06-.12.15-.16.38,0,.53.14.13.4.16.53,0,.03-.03.06-.06.08-.1.04-.07-.01.04-.1.08l-.19.05c-.06,0-.1-.04-.14-.07.01.01-.1-.11-.07-.12l.02.19c.02.13.04.25.07.37.02.11.04.22.06.33.01.06.02.12.04.17,0,.02.01.04.02.07.02.1,0-.07,0,.04l.47-.36c.07.02.12.05.15.1,0-.01-.02-.03-.02-.04,0-.02-.02-.03-.03-.05-.06-.09-.13-.17-.19-.25-.11-.13-.21-.26-.33-.37-.13-.12-.28-.23-.42-.33-.16-.11-.39-.26-.58-.19s-.31.24-.26.46t0,0s.01.09.02.13c.01.07.03.12.06.18.02.04.04.07.06.1.03.03.05.07.08.1t0,0s.02.04.03.06c-.01-.04-.01-.03,0,0,0,.03.02.07.03.1-.01-.08,0,.06,0,.08v.15c.02.17.05.34.08.51.04.18.12.37.29.46.12.06.26.07.38,0s.17-.19.19-.32c0-.03-.02-.24-.01-.14v-.41c0-.21-.01-.41-.05-.61,0-.04-.02-.08-.03-.12,0-.02-.03-.16-.02-.07v-.38q0-.05,0,0s0-.04.01-.06c-.05.14-.14.21-.26.22h.23c.2,0,.38-.17.38-.38s-.16-.37-.38-.38h0Z"/>
    <path class="cls-1" d="M251,134c.37,0,.76.03,1.12-.05.14-.03.29-.07.43-.11.1-.03.59-.12.14-.07.17,0,.33-.03.49-.08.16-.04.12-.04-.12,0,.02-.03.4-.02.45-.02.4-.04.6-.11.96-.27.15-.07.13-.06-.07.03-.32.04-.25.02.21-.03.14-.03.1-.03-.14.02.16,0,.31-.03.46-.07-.55,0,0,.03.1.03.39,0,.78-.03,1.16-.15.58-.17,1.16-.29,1.76-.38.34-.05.73-.4.9-.69.19-.32.27-.8.15-1.16s-.34-.71-.69-.9c-.38-.2-.73-.21-1.16-.15-.6.08-1.18.21-1.76.38-.07.03-.14.05-.21.06.22-.03.24-.03.07-.02h-.33c-.25,0-.47.05-.73.06-.13.04-.08.03.16-.02-.16,0-.32.03-.47.07.59-.06-.21.03-.38.09-.15.06-.31.13-.46.19.1-.07.22-.09.34-.08-.02-.02-.31,0-.34,0-.07,0-.66.02-.68.11.34-.03.28-.02-.19.03-.08,0-.15.03-.22.05-.14.04-.3.07-.44.11-.31.09.36.02-.05,0h-.48c-.78,0-1.54.69-1.5,1.5s.66,1.5,1.5,1.5h.02Z"/>
    <line class="cls-3" x1="256.64" y1="134.62" x2="229" y2="134.5"/>
    <path class="cls-1" d="M253.45,133.09h1.53c.12,0,.25-.02.38,0l-.4-.05h.02c-.12-.05-.24-.1-.36-.15h.02c-.1-.07-.2-.15-.3-.23l.02.02-.23-.3v.02c-.04-.12-.09-.24-.14-.36,0,0,0,.03,0,.04l-.05-.4v.05l.05-.4s-.02.09-.04.14l.15-.36c-.05.1-.11.21-.17.3l.23-.3c-.14.18-.31.35-.41.55-.08.15-.15.31-.19.47-.07.29-.08.61,0,.9.09.32.28.61.52.83.14.13.23.24.42.35.14.08.31.13.46.19l-.36-.15h.02c-.1-.07-.2-.14-.3-.22l.02.02-.23-.3v.03c-.04-.12-.09-.24-.14-.36v.03c0-.13-.03-.27-.04-.4v.03c.02-.13.04-.27.05-.4v.03c.12-.22.25-.44.37-.66l-.02.02.66-.39h-.03c.13,0,.27-.03.4-.05h-.03c.13,0,.27.03.4.05-.22-.07-.45-.13-.68-.17-.18-.03-.36-.06-.54-.07s-.36.03-.54.06c-.12.02-.24.06-.37.08l.4-.05c-.22.02-.46.02-.68,0l.4.05c-.3-.05-.58-.13-.89-.14-.38,0-.79.17-1.06.44s-.46.69-.44,1.06.14.79.44,1.06.65.44,1.06.44h.14l-.4-.05c.12.02.23.05.35.07.26.04.5.07.76.06s.49-.02.74-.06c.12-.02.24-.06.37-.08l-.4.05h.18l-.4-.05c.54.08,1,.34,1.57.19.38-.1.74-.37.94-.71.21-.36.26-.82.16-1.22-.09-.35-.3-.64-.58-.86-.22-.17-.21-.17-.53-.28-.03,0-.05-.02-.08-.03l.36.15h-.02c.1.07.2.15.3.22-.07-.06-.15-.13-.21-.2l.23.3s-.02-.03-.03-.05l.15.36s-.01-.04-.02-.06l.05.4v-.07l-.05.4s0-.04.02-.06l-.15.36c.02-.05.05-.1.09-.15l-.23.3c.14-.18.3-.35.41-.54.11-.18.2-.38.27-.59.06-.15.09-.38.08-.51,0-.16-.02-.34-.07-.49-.12-.38-.37-.72-.72-.93-.12-.07-.25-.13-.39-.16-.12-.03-.32-.06-.44-.06-.63,0-1.25,0-1.88,0-.38,0-.79.17-1.06.44s-.46.69-.44,1.06.14.79.44,1.06.65.44,1.06.44h.04Z"/>
    <line class="cls-3" x1="276.53" y1="136.03" x2="314.5" y2="137.5"/>
    <path class="cls-1" d="M276.04,133.56c.97,0,1.95-.05,2.92.02.77.05,1.69.42,2.55.65,1.07.28,2.14.45,3.22.19.19-.05.37-.09.56-.12-.13,0-.11,0,.07,0-.65-.56-.87-.66-.65-.31.07.16.08.16.01.02.03.1.05.19.07.29-.03-.27-.04.64.03.15l.39-.66-.07.07c-.73.73-.49,2.33.66,2.51.07,0,.14.02.21.04l.4-2.95c.38.03-.61-.13-.38-.06.11,0,.09,0-.07-.03-.17-.04-.34-.06-.52-.05.28.04,0-.02-.12-.04-.24-.04-.47-.06-.71-.1.27.04-.23-.05-.28-.06-.29-.05-.57-.09-.86-.12-.41-.05-.82-.02-1.23-.07-.67-.08-1.43-.36-2.11-.56-.42-.12-.83-.25-1.26-.29s-.84,0-1.27,0c-.86,0-1.75-.43-2.51.33-.69.69-.72,1.99-.25,2.81.31.54.85.86,1.47.88.18.02.35,0,.52-.05.15-.03.16-.03.05,0-.26.04.72,0,.37,0,.84.04,1.58-.02,2.36-.08l-.4-2.95c.1-.02.08-.03-.05,0-.16,0-.31,0-.44.07-.31.09-.56.26-.79.49-.74.74-.48,2.3.66,2.51.59.11,1.26.09,1.81.14.13,0,.39.07.57.08,0,0,.39,0,.21,0-.27-.02.44.05.54.06.2,0,.39,0,.59,0,1.2-.03,2.45,0,3.64.13.81.09,1.5-.75,1.5-1.5,0-.88-.69-1.41-1.5-1.5-1.13-.12-2.31-.16-3.45-.14h-.39s-.53.02-.33.02c-.18,0-.36-.07-.54-.07-.43,0,.17.02-.15,0-.37-.03-.72-.09-1.09-.1-.13,0-.26-.03-.38-.03-.05,0-.48-.03-.23,0l.66,2.51.08-.08-.66.39c-.25,0-.26,0-.03,0,.19-.02.38-.05.57-.08.73-.11,1.17-.99,1.07-1.65s-.72-1.37-1.47-1.3c-.66.06-1.27.1-1.8.11-.31,0-.62-.03-.93,0-.55.04.13,0-.2,0l-.4.05c-.27.05-.16.06.31,0l.9.69c.04.07.06.31.05.12s-.04.23-.09.31l-.54.54.06-.05-.76.2c-.26-.03-.27-.02-.03.02.19.03.38.05.58.08.25.03.5.05.75.06.36,0,.87-.05,1.14,0,.88.15,1.75.53,2.63.72.96.2,1.88.18,2.79.32-.31-.05.85.13.47.06.27.05.53.14.8.14.17,0,.16,0-.03-.02.17.05.35.08.53.09.16.02.17.02.02,0,.19.03.37.05.56.07.73.07,1.39-.62,1.47-1.3.09-.72-.34-1.46-1.07-1.65-.07-.02-.14-.03-.21-.04l.66,2.51c.96-.96.53-2.92-.22-3.89-.5-.64-1.21-.85-2-.75-.35.04-.69.1-1.03.18s-.3.09-.65.06c-1.13-.13-2.19-.66-3.31-.84-1.33-.22-2.69-.15-4.03-.15-.81,0-1.5.69-1.5,1.5s.69,1.5,1.5,1.5h0v-.02Z"/>
    <path class="cls-1" d="M305.21,137.01c.36,0,.56.1,1.01.18s.94.06,1.41.06h2.54c.85,0,1.65-.07,2.48-.09.39,0,.78,0,1.18,0h.31c-.15-.03-.16-.02-.02,0,.4.14.88.03,1.23-.2,1-.67.92-1.91,0-2.59-.23-.17-.5-.27-.77-.38-.22-.09.2.11-.02,0-.09-.05-.18-.08-.27-.13-.49-.24-.95-.41-1.48-.53s-1.02-.35-1.56-.39c-.64-.05-1.21.24-1.68.66-.59.52-.57,1.59,0,2.12.63.58,1.5.56,2.12,0-.12.1-.59.34-.68.21.05.07.37.11.47.14.32.1.64.17.97.25.1.03.1.02,0-.03.07.03.13.07.2.1.13.07.27.13.4.19.2.09.41.17.61.26.1.04.08.03-.05-.02.08.04.16.09.22.15v-2.59l-.07.05,1.16-.15c-.74-.22-1.66-.15-2.43-.11-.83.04-1.65.09-2.48.09h-2.45c-.2,0-.41-.02-.61,0-.21,0-.23,0-.06.02-.07,0-.14-.03-.21-.05-.48-.11-.96-.19-1.46-.21-.78-.03-1.54.71-1.5,1.5.04.84.66,1.47,1.5,1.5h0v-.02Z"/>
    <path class="cls-1" d="M304.83,136.96c1.28,0,2.56-.16,3.84-.14.14,0,.28,0,.41.02q.11,0,0,0l.16.04c.35.11.64.18,1.01.23-.33-.04.07,0,.18.02.15.02.29.03.44.03-.42-.02.5.1.22.03.12.03.36.18.06,0l.36-2.74c.42-.12-.41.06-.53.08l1.46,2.51s-1.04.31-.52.29c.22,0-.27,0-.09,0,.15.03.29.05.44.06l-.34-.12c.17,0,.34.17.5.2.31.07.62.07.93.07h.32c-.23-.02.19.06.22.07.75.25,1.67-.29,1.85-1.05.19-.83-.25-1.58-1.05-1.85-.43-.14-.89-.18-1.34-.19h-.24c-.22,0-.11.03.32.13-.15-.07-.3-.13-.46-.2-.12-.02-.24-.04-.36-.06-.25-.03-.27-.04-.05,0-.17-.03-.33-.05-.5-.07-.11,0-.22-.02-.34-.02-.56.02-1.02.21-1.43.59-.47.43-.58,1.28-.23,1.82.38.59,1.01.82,1.69.69.17-.04.17-.03,0,0,.18,0,.36-.03.53-.09,1.23-.36,1.48-2.08.36-2.74-.29-.17-.61-.28-.94-.34-.83-.15.11-.02-.73-.09-.05,0-.46-.03-.09,0-.19-.02-.47-.02-.64-.08.39.12,0-.05-.05-.07-.39-.13-.8-.17-1.21-.2-1.39-.09-2.78.13-4.17.13-.78,0-1.54.69-1.5,1.5s.66,1.5,1.5,1.5h0v.04Z"/>
    <path class="cls-1" d="M305.02,137.1c1.93,0,1.93-3,0-3s-1.93,3,0,3h0Z"/>
    <line class="cls-4" x1="64.5" y1="140.5" x2="101.19" y2="135.43"/>
    <path class="cls-1" d="M248.05,134.39c.19,0,.16.06-.14-.03l-.66-.39.04.04v-2.12l-.03.03.66-.39c-.29.05-.62.27-.82.48-.71.75-.5,1.79.3,2.36.37.26.87.26,1.3.15.21-.05.14.02-.16,0h.23l-1.06-.44c.39.41.87.54,1.42.53h.35c.1,0,.47-.06.55,0-.32-.05-.25-.04.21.02.07,0,.14,0,.21,0l.4-.05c-.25.03-.27.04-.07.03.35.02.7,0,1.04,0h.97c.23,0,.4-.02.64-.06.07,0,.14-.03.21-.04-.23.03-.25.04-.05.03.13,0,.6.07.15-.04.2.05.41.07.61.07.38,0,.74-.04,1.1-.12.77-.16,1.29-1.11,1.05-1.85-.26-.81-1.02-1.22-1.85-1.05-.07,0-.13.03-.2.05.22-.03.27-.04.15-.04-.11,0-.46-.07-.07.04-.31-.08-.63-.07-.95-.07-.22,0-.43.03-.64.06-.07,0-.14.02-.21.03.19-.02.23-.03.11-.03-.26-.04-.56,0-.83,0h-1.33c-.06,0-.11,0-.17,0-.47.07-.53.07-.19.02l.18.03c-.17-.03-.34-.05-.51-.06h-.41c-.25,0-.51.02-.75,0l1.06.44c-.4-.35-.78-.53-1.31-.53-.19,0-.32,0-.54.05-.15.04-.4.08.12.03l.76.2-.03-.02.3,2.36c-.62.33-.67.38-.14.14.11-.09.23-.17.34-.26.27-.22.45-.73.44-1.06-.02-.41-.16-.76-.44-1.06-.35-.38-.86-.52-1.36-.5-.78.04-1.54.66-1.5,1.5.04.78.66,1.54,1.5,1.5h.02Z"/>
    <path class="cls-1" d="M315.96,114.75h-1.2c-.2,0-.39-.01-.59-.02-.18-.01-.4-.06-.58-.02l1.02.62c-.05-.09-.04-.07.02.06.11.27.01.02,0-.04-.07-.2-.14-.4-.24-.6-.26-.55.27.64-.06,1.12-.21.3-.57.58-.95.55.13.01.27-.01.4-.01.38-.01.77,0,1.15.02.19.01.38.03.56.05.07,0,.14.02.21.02l-.19-.03c.09.03.21.03.31.05.37.06.75.14,1.12.23.2.05.4.1.6.16.1.03.2.06.3.09l.1.03c.15.04.11.02-.13-.06.66.42,1.68.16,2.05-.54.39-.74.17-1.6-.54-2.05-.47-.3-1.14-.41-1.68-.54-.6-.14-1.21-.24-1.83-.32-.52-.07-1.03-.11-1.55-.11s-1.14-.03-1.64.18c-.4.17-.69.45-.9.83-.31.56-.25,1.12,0,1.67.02.04.04.08.06.12.07.14.04.08-.08-.2.02.08.05.16.08.24.13.35.26.68.52.95.56.58,1.36.52,2.1.55.52.03,1.05.01,1.57,0,.78,0,1.54-.69,1.5-1.5s-.66-1.5-1.5-1.5h0Z"/>
    <path class="cls-1" d="M318.07,116.87c1.93,0,1.93-3,0-3s-1.93,3,0,3h0Z"/>
    <path class="cls-1" d="M343.31,107.61v3.52c0,1.07.05,2.15-.23,3.19s-.61,2.17-.89,3.26c-.14.55-.28,1.1-.41,1.64-.06.26-.12.51-.18.77-.04.17-.09.34-.13.51-.12.32-.1.34.06.04l2.36.3-.07-.16.15,1.16c.21-1.11.37-2.22.61-3.33s.45-2.2.53-3.35.34-2.19.45-3.3c.06-.57.11-1.14.16-1.71.04-.51.21-.99.26-1.49l-.2.76.04-.09-2.74-.36c-.07-.47-.08.27-.09.38-.03.22-.06.45-.1.67-.1.53-.22,1.06-.35,1.59-.27,1.11-.53,2.22-.75,3.34-.42,2.13-.74,4.24-.82,6.42-.08,1.93,2.92,1.93,3,0,.09-2.18.43-4.29.88-6.43.24-1.11.52-2.22.77-3.33s.53-2.32.35-3.44c-.19-1.22-2.25-1.51-2.74-.36-.44,1.03-.49,2.28-.61,3.54s-.4,2.45-.49,3.7c-.08,1.17-.35,2.27-.59,3.42-.25,1.24-.74,2.72-.23,3.9.39.9,1.74.92,2.36.3.87-.88.99-2.49,1.28-3.65.3-1.22.62-2.44.97-3.65.71-2.46.41-5.23.41-7.76,0-1.93-3-1.93-3,0h-.02Z"/>
    <path class="cls-1" d="M315.88,124.39s.49.13.48.2c0-.02-.31-.27-.35-.31-.12-.12-.23-.29-.34-.45-.35-.53-.6-1.06-.85-1.64-.48-1.11-.82-2.28-.9-3.48-.04-.54,0-1.1,0-1.65,0-.43.02-.77.2-1,0,0,.15-.14.29-.21.22-.12.46-.19.71-.25.17-.04.25-.04.49-.04-.14,0,.12.1,0,0-.17-.13-.34-.11-.39-.44v-.8c.03-.06.07-.11.12-.15-.07.08-.15.16-.23.24-.11.11-.22.21-.33.32-.37.37-.69.8-1.01,1.22-.55.71-1.25,1.39-1.65,2.2-.99,2.02.07,4.54,2.06,5.49.86.41,1.96.66,2.91.43,1.19-.29,1.8-1.37,1.84-2.53.03-.94-.36-1.84-.63-2.71-.3-.97-.66-1.87-1.35-2.64-.54-.6-1.57-.55-2.12,0-.6.6-.54,1.52,0,2.12.24.27.37.65.5,1.06.17.54.37,1.09.52,1.64,0,.03.16.63.08.63-.04,0,.35-.66.55-.48-.01-.01-.25,0-.3,0-.46-.03.12.04-.17-.03s-.4-.1-.62-.23-.47-.41-.58-.71c-.16-.43-.07-.63.21-1,.69-.91,1.4-1.83,2.22-2.63.49-.48.94-1.1.94-1.81s-.48-1.41-1.1-1.77c-1.2-.7-2.82-.38-3.99.21s-1.92,1.73-2.1,3.05-.09,2.8.13,4.13c.23,1.45.85,2.93,1.51,4.24s1.76,2.8,3.28,2.81c1.93.01,1.93-2.99,0-3h0l-.03-.03Z"/>
    <path class="cls-1" d="M319.17,105.02c-.04,1.14-.35,2.24-.52,3.36-.1.65-.07,1.25-.21,1.89-.15.69-.3,1.39-.44,2.08-.52,2.66-.77,5.36-1.25,8.03-.14.8.22,1.62,1.05,1.85.73.2,1.7-.25,1.85-1.05.5-2.77.75-5.57,1.31-8.33.14-.7.29-1.39.44-2.08.14-.63.14-1.21.19-1.84.04-.6.25-1.19.34-1.79.1-.7.22-1.41.25-2.12.06-1.93-2.94-1.93-3,0h-.01Z"/>
    <path class="cls-1" d="M343.01,108.4c0,1.76.08,3.54-.06,5.3-.02.23-.09.56-.15.91-.07.41-.14.82-.2,1.23-.14.89-.29,1.77-.54,2.64l2.51-.66c.08.91.17,1.15.27.71l.05-.4c.01-.19,0-.39,0-.59,0-.39.02-.78.03-1.17.03-.84.07-1.67.12-2.51s.1-1.62.11-2.43c0-.44.02-.62.1-.9.05-.16.1-.32.14-.48.03-.08.05-.16.06-.24.09-.55.07-.53-.07.05l-2.8-.76c-.01.82.05,1.65-.1,2.46-.16.85-.35,1.69-.47,2.55s-.15,1.69-.24,2.54c-.03.29-.07.59-.15.9-.02.07-.13.46-.04.19-.12.35-.24.6-.25.98-.03.81.71,1.5,1.5,1.5.84,0,1.47-.69,1.5-1.5v-.12c-.06.25-.13.5-.2.76.36-.83.51-1.61.62-2.52.09-.77.1-1.57.21-2.33.12-.86.35-1.69.49-2.55.15-.96.12-1.9.13-2.86.03-1.49-2.06-2.04-2.8-.76-.21.36-.18.57-.28.96.09-.34-.11.29-.13.35-.14.49-.22.97-.23,1.47-.03.98-.07,1.96-.13,2.94s-.1,1.93-.13,2.89c0,.26-.02.52-.02.78,0,.24,0,.09-.01.28-.08.77.05,1.31.56,1.91.76.89,2.21.35,2.51-.66.26-.86.4-1.75.54-2.64s.35-1.83.44-2.76c.19-1.81.08-3.66.08-5.47,0-.81-.69-1.5-1.5-1.5s-1.5.69-1.5,1.5h.03Z"/>
  </g>
</svg>